# Blender 4.1.1
# www.blender.org
mtllib enemyBullet.mtl
o 球
v 0.000000 0.831470 -0.555570
v 0.000000 0.555570 -0.831470
v 0.000000 0.195090 -0.980785
v 0.000000 0.000000 -1.000000
v 0.000000 -0.195090 -0.980785
v 0.000000 -0.555570 -0.831470
v 0.038060 0.980785 -0.191342
v 0.074658 0.923880 -0.375330
v 0.108386 0.831470 -0.544895
v 0.137950 0.707107 -0.693520
v 0.162212 0.555570 -0.815493
v 0.180240 0.382683 -0.906127
v 0.191342 0.195090 -0.961940
v 0.195090 0.000000 -0.980785
v 0.191342 -0.195090 -0.961940
v 0.180240 -0.382683 -0.906127
v 0.162212 -0.555570 -0.815493
v 0.137950 -0.707107 -0.693520
v 0.108386 -0.831470 -0.544895
v 0.074658 -0.923880 -0.375330
v 0.038060 -0.980785 -0.191342
v 0.074658 0.980785 -0.180240
v 0.146447 0.923880 -0.353553
v 0.212608 0.831470 -0.513280
v 0.270598 0.707107 -0.653281
v 0.318190 0.555570 -0.768178
v 0.353553 0.382683 -0.853553
v 0.375330 0.195090 -0.906127
v 0.382683 0.000000 -0.923879
v 0.375330 -0.195090 -0.906127
v 0.353553 -0.382683 -0.853553
v 0.318190 -0.555570 -0.768178
v 0.270598 -0.707107 -0.653281
v 0.212608 -0.831470 -0.513280
v 0.146447 -0.923880 -0.353553
v 0.074658 -0.980785 -0.180240
v 0.108386 0.980785 -0.162212
v 0.212608 0.923880 -0.318190
v 0.308658 0.831470 -0.461940
v 0.392847 0.707107 -0.587938
v 0.461940 0.555570 -0.691342
v 0.513280 0.382683 -0.768178
v 0.544895 0.195090 -0.815493
v 0.555570 0.000000 -0.831469
v 0.544895 -0.195090 -0.815493
v 0.513280 -0.382683 -0.768178
v 0.461940 -0.555570 -0.691342
v 0.392847 -0.707107 -0.587938
v 0.308658 -0.831470 -0.461940
v 0.212608 -0.923880 -0.318190
v 0.108386 -0.980785 -0.162212
v 0.137950 0.980785 -0.137950
v 0.270598 0.923880 -0.270598
v 0.392847 0.831470 -0.392847
v 0.500000 0.707107 -0.500000
v 0.587938 0.555570 -0.587938
v 0.653281 0.382683 -0.653281
v 0.693520 0.195090 -0.693520
v 0.707107 0.000000 -0.707107
v 0.693520 -0.195090 -0.693520
v 0.653281 -0.382683 -0.653281
v 0.587938 -0.555570 -0.587938
v 0.500000 -0.707107 -0.500000
v 0.392847 -0.831470 -0.392847
v 0.270598 -0.923880 -0.270598
v 0.137950 -0.980785 -0.137950
v 0.162212 0.980785 -0.108386
v 0.318190 0.923880 -0.212608
v 0.461940 0.831470 -0.308658
v 0.587938 0.707107 -0.392847
v 0.691342 0.555570 -0.461940
v 0.768178 0.382683 -0.513280
v 0.815493 0.195090 -0.544895
v 0.831470 0.000000 -0.555570
v 0.815493 -0.195090 -0.544895
v 0.768178 -0.382683 -0.513280
v 0.691342 -0.555570 -0.461940
v 0.587938 -0.707107 -0.392847
v 0.461940 -0.831470 -0.308658
v 0.318190 -0.923880 -0.212608
v 0.162212 -0.980785 -0.108386
v 0.000000 1.000000 0.000000
v 0.180240 0.980785 -0.074658
v 0.353553 0.923880 -0.146447
v 0.513280 0.831470 -0.212607
v 0.653281 0.707107 -0.270598
v 0.768178 0.555570 -0.318190
v 0.853553 0.382683 -0.353553
v 0.906127 0.195090 -0.375330
v 0.923879 0.000000 -0.382683
v 0.906127 -0.195090 -0.375330
v 0.853553 -0.382683 -0.353553
v 0.768178 -0.555570 -0.318190
v 0.653281 -0.707107 -0.270598
v 0.513280 -0.831470 -0.212607
v 0.353553 -0.923880 -0.146447
v 0.180240 -0.980785 -0.074658
v 0.191342 0.980785 -0.038060
v 0.375330 0.923880 -0.074658
v 0.544895 0.831470 -0.108386
v 0.693520 0.707107 -0.137950
v 0.815493 0.555570 -0.162212
v 0.906127 0.382683 -0.180240
v 0.961940 0.195090 -0.191342
v 0.980785 0.000000 -0.195090
v 0.961940 -0.195090 -0.191342
v 0.906127 -0.382683 -0.180240
v 0.815493 -0.555570 -0.162212
v 0.693520 -0.707107 -0.137950
v 0.544895 -0.831470 -0.108386
v 0.375330 -0.923880 -0.074658
v 0.191342 -0.980785 -0.038060
v 0.195090 0.980785 0.000000
v 0.382683 0.923880 0.000000
v 0.555570 0.831470 0.000000
v 0.707107 0.707107 -0.000000
v 0.831469 0.555570 0.000000
v 0.923879 0.382683 -0.000000
v 0.980785 0.195090 0.000000
v 1.000000 0.000000 0.000000
v 0.980785 -0.195090 0.000000
v 0.923879 -0.382683 -0.000000
v 0.831469 -0.555570 0.000000
v 0.707107 -0.707107 -0.000000
v 0.555570 -0.831470 0.000000
v 0.382683 -0.923880 0.000000
v 0.195090 -0.980785 0.000000
v 0.191342 0.980785 0.038060
v 0.375330 0.923880 0.074658
v 0.544895 0.831470 0.108386
v 0.693520 0.707107 0.137950
v 0.815493 0.555570 0.162212
v 0.906127 0.382683 0.180240
v 0.961940 0.195090 0.191342
v 0.980785 0.000000 0.195090
v 0.961940 -0.195090 0.191342
v 0.906127 -0.382683 0.180240
v 0.815493 -0.555570 0.162212
v 0.693520 -0.707107 0.137950
v 0.544895 -0.831470 0.108386
v 0.375330 -0.923880 0.074658
v 0.191342 -0.980785 0.038060
v 0.180240 0.980785 0.074658
v 0.353553 0.923880 0.146447
v 0.513280 0.831470 0.212608
v 0.653281 0.707107 0.270598
v 0.768178 0.555570 0.318190
v 0.853553 0.382683 0.353553
v 0.906127 0.195090 0.375330
v 0.923879 0.000000 0.382683
v 0.906127 -0.195090 0.375330
v 0.853553 -0.382683 0.353553
v 0.768178 -0.555570 0.318190
v 0.653281 -0.707107 0.270598
v 0.513280 -0.831470 0.212608
v 0.353553 -0.923880 0.146447
v 0.180240 -0.980785 0.074658
v 0.162212 0.980785 0.108386
v 0.318190 0.923880 0.212608
v 0.461940 0.831470 0.308658
v 0.587938 0.707107 0.392847
v 0.691341 0.555570 0.461940
v 0.768178 0.382683 0.513280
v 0.815493 0.195090 0.544895
v 0.831469 0.000000 0.555570
v 0.815493 -0.195090 0.544895
v 0.768178 -0.382683 0.513280
v 0.691341 -0.555570 0.461940
v 0.587938 -0.707107 0.392847
v 0.461940 -0.831470 0.308658
v 0.318190 -0.923880 0.212608
v 0.162212 -0.980785 0.108386
v 0.137950 0.980785 0.137950
v 0.270598 0.923880 0.270598
v 0.392847 0.831470 0.392847
v 0.500000 0.707107 0.500000
v 0.587938 0.555570 0.587938
v 0.653281 0.382683 0.653281
v 0.693520 0.195090 0.693520
v 0.707106 0.000000 0.707107
v 0.693520 -0.195090 0.693520
v 0.653281 -0.382683 0.653281
v 0.587938 -0.555570 0.587938
v 0.500000 -0.707107 0.500000
v 0.392847 -0.831470 0.392847
v 0.270598 -0.923880 0.270598
v 0.137950 -0.980785 0.137950
v 0.108386 0.980785 0.162212
v 0.212607 0.923880 0.318190
v 0.308658 0.831470 0.461940
v 0.392847 0.707107 0.587938
v 0.461940 0.555570 0.691342
v 0.513280 0.382683 0.768178
v 0.544895 0.195090 0.815493
v 0.555570 0.000000 0.831469
v 0.544895 -0.195090 0.815493
v 0.513280 -0.382683 0.768178
v 0.461940 -0.555570 0.691342
v 0.392847 -0.707107 0.587938
v 0.308658 -0.831470 0.461940
v 0.212607 -0.923880 0.318190
v 0.108386 -0.980785 0.162212
v 0.074658 0.980785 0.180240
v 0.146447 0.923880 0.353553
v 0.212607 0.831470 0.513280
v 0.270598 0.707107 0.653281
v 0.318189 0.555570 0.768178
v 0.353553 0.382683 0.853553
v 0.375330 0.195090 0.906127
v 0.382683 0.000000 0.923879
v 0.375330 -0.195090 0.906127
v 0.353553 -0.382683 0.853553
v 0.318189 -0.555570 0.768178
v 0.270598 -0.707107 0.653281
v 0.212607 -0.831470 0.513280
v 0.146447 -0.923880 0.353553
v 0.074658 -0.980785 0.180240
v 0.038060 0.980785 0.191342
v 0.074658 0.923880 0.375330
v 0.108386 0.831470 0.544895
v 0.137950 0.707107 0.693520
v 0.162212 0.555570 0.815493
v 0.180240 0.382683 0.906127
v 0.191342 0.195090 0.961939
v 0.195090 0.000000 0.980785
v 0.191342 -0.195090 0.961939
v 0.180240 -0.382683 0.906127
v 0.162212 -0.555570 0.815493
v 0.137950 -0.707107 0.693520
v 0.108386 -0.831470 0.544895
v 0.074658 -0.923880 0.375330
v 0.038060 -0.980785 0.191342
v -0.000000 0.980785 0.195090
v -0.000000 0.923880 0.382683
v -0.000000 0.831470 0.555570
v -0.000000 0.707107 0.707107
v -0.000000 0.555570 0.831469
v 0.000000 0.382683 0.923879
v -0.000000 0.195090 0.980785
v -0.000000 0.000000 0.999999
v -0.000000 -0.195090 0.980785
v 0.000000 -0.382683 0.923879
v -0.000000 -0.555570 0.831469
v -0.000000 -0.707107 0.707107
v -0.000000 -0.831470 0.555570
v -0.000000 -0.923880 0.382683
v -0.000000 -0.980785 0.195090
v -0.038060 0.980785 0.191342
v -0.074658 0.923880 0.375330
v -0.108386 0.831470 0.544895
v -0.137950 0.707107 0.693520
v -0.162212 0.555570 0.815493
v -0.180240 0.382683 0.906127
v -0.191342 0.195090 0.961939
v -0.195091 0.000000 0.980785
v -0.191342 -0.195090 0.961939
v -0.180240 -0.382683 0.906127
v -0.162212 -0.555570 0.815493
v -0.137950 -0.707107 0.693520
v -0.108386 -0.831470 0.544895
v -0.074658 -0.923880 0.375330
v -0.038060 -0.980785 0.191342
v -0.074658 0.980785 0.180240
v -0.146447 0.923880 0.353553
v -0.212608 0.831470 0.513280
v -0.270598 0.707107 0.653281
v -0.318190 0.555570 0.768177
v -0.353553 0.382683 0.853553
v -0.375330 0.195090 0.906127
v -0.382683 0.000000 0.923879
v -0.375330 -0.195090 0.906127
v -0.353553 -0.382683 0.853553
v -0.318190 -0.555570 0.768177
v -0.270598 -0.707107 0.653281
v -0.212608 -0.831470 0.513280
v -0.146447 -0.923880 0.353553
v -0.074658 -0.980785 0.180240
v -0.108386 0.980785 0.162212
v -0.212608 0.923880 0.318190
v -0.308658 0.831470 0.461939
v -0.392847 0.707107 0.587938
v -0.461940 0.555570 0.691341
v -0.513280 0.382683 0.768178
v -0.544895 0.195090 0.815493
v -0.555570 0.000000 0.831469
v -0.544895 -0.195090 0.815493
v -0.513280 -0.382683 0.768178
v -0.461940 -0.555570 0.691341
v -0.392847 -0.707107 0.587938
v -0.308658 -0.831470 0.461939
v -0.212608 -0.923880 0.318190
v -0.108386 -0.980785 0.162212
v -0.137950 0.980785 0.137950
v -0.270598 0.923880 0.270598
v -0.392847 0.831470 0.392847
v -0.500000 0.707107 0.500000
v -0.587938 0.555570 0.587937
v -0.653281 0.382683 0.653281
v -0.693520 0.195090 0.693520
v -0.707106 0.000000 0.707106
v -0.693520 -0.195090 0.693520
v -0.653281 -0.382683 0.653281
v -0.587938 -0.555570 0.587937
v -0.500000 -0.707107 0.500000
v -0.392847 -0.831470 0.392847
v -0.270598 -0.923880 0.270598
v -0.137950 -0.980785 0.137950
v 0.000000 -1.000000 0.000000
v -0.162212 0.980785 0.108386
v -0.318190 0.923880 0.212607
v -0.461940 0.831470 0.308658
v -0.587938 0.707107 0.392847
v -0.691341 0.555570 0.461939
v -0.768177 0.382683 0.513280
v -0.815493 0.195090 0.544895
v -0.831469 0.000000 0.555569
v -0.815493 -0.195090 0.544895
v -0.768177 -0.382683 0.513280
v -0.691341 -0.555570 0.461939
v -0.587938 -0.707107 0.392847
v -0.461940 -0.831470 0.308658
v -0.318190 -0.923880 0.212607
v -0.162212 -0.980785 0.108386
v -0.180240 0.980785 0.074658
v -0.353553 0.923880 0.146447
v -0.513280 0.831470 0.212607
v -0.653281 0.707107 0.270598
v -0.768177 0.555570 0.318189
v -0.853553 0.382683 0.353553
v -0.906127 0.195090 0.375330
v -0.923879 0.000000 0.382683
v -0.906127 -0.195090 0.375330
v -0.853553 -0.382683 0.353553
v -0.768177 -0.555570 0.318189
v -0.653281 -0.707107 0.270598
v -0.513280 -0.831470 0.212607
v -0.353553 -0.923880 0.146447
v -0.180240 -0.980785 0.074658
v -0.191342 0.980785 0.038060
v -0.375330 0.923880 0.074658
v -0.544895 0.831470 0.108386
v -0.693520 0.707107 0.137950
v -0.815493 0.555570 0.162211
v -0.906127 0.382683 0.180240
v -0.961939 0.195090 0.191341
v -0.980784 0.000000 0.195090
v -0.961939 -0.195090 0.191341
v -0.906127 -0.382683 0.180240
v -0.815493 -0.555570 0.162211
v -0.693520 -0.707107 0.137950
v -0.544895 -0.831470 0.108386
v -0.375330 -0.923880 0.074658
v -0.191342 -0.980785 0.038060
v -0.195090 0.980785 -0.000000
v -0.382683 0.923880 -0.000000
v -0.555570 0.831470 -0.000000
v -0.707107 0.707107 -0.000000
v -0.831469 0.555570 -0.000000
v -0.923879 0.382683 -0.000000
v -0.980785 0.195090 -0.000000
v -0.999999 0.000000 -0.000000
v -0.980785 -0.195090 -0.000000
v -0.923879 -0.382683 -0.000000
v -0.831469 -0.555570 -0.000000
v -0.707107 -0.707107 -0.000000
v -0.555570 -0.831470 -0.000000
v -0.382683 -0.923880 -0.000000
v -0.195090 -0.980785 -0.000000
v -0.191342 0.980785 -0.038060
v -0.375330 0.923880 -0.074658
v -0.544895 0.831470 -0.108386
v -0.693520 0.707107 -0.137950
v -0.815493 0.555570 -0.162212
v -0.906127 0.382683 -0.180240
v -0.961939 0.195090 -0.191342
v -0.980784 0.000000 -0.195091
v -0.961939 -0.195090 -0.191342
v -0.906127 -0.382683 -0.180240
v -0.815493 -0.555570 -0.162212
v -0.693520 -0.707107 -0.137950
v -0.544895 -0.831470 -0.108386
v -0.375330 -0.923880 -0.074658
v -0.191342 -0.980785 -0.038060
v -0.180240 0.980785 -0.074658
v -0.353553 0.923880 -0.146447
v -0.513279 0.831470 -0.212607
v -0.653281 0.707107 -0.270598
v -0.768177 0.555570 -0.318190
v -0.853553 0.382683 -0.353553
v -0.906127 0.195090 -0.375330
v -0.923878 0.000000 -0.382683
v -0.906127 -0.195090 -0.375330
v -0.853553 -0.382683 -0.353553
v -0.768177 -0.555570 -0.318190
v -0.653281 -0.707107 -0.270598
v -0.513279 -0.831470 -0.212607
v -0.353553 -0.923880 -0.146447
v -0.180240 -0.980785 -0.074658
v -0.162212 0.980785 -0.108386
v -0.318189 0.923880 -0.212607
v -0.461939 0.831470 -0.308658
v -0.587938 0.707107 -0.392847
v -0.691341 0.555570 -0.461940
v -0.768177 0.382683 -0.513280
v -0.815493 0.195090 -0.544895
v -0.831468 0.000000 -0.555570
v -0.815493 -0.195090 -0.544895
v -0.768177 -0.382683 -0.513280
v -0.691341 -0.555570 -0.461940
v -0.587938 -0.707107 -0.392847
v -0.461939 -0.831470 -0.308658
v -0.318189 -0.923880 -0.212607
v -0.162212 -0.980785 -0.108386
v -0.137950 0.980785 -0.137950
v -0.270598 0.923880 -0.270598
v -0.392847 0.831470 -0.392847
v -0.500000 0.707107 -0.500000
v -0.587937 0.555570 -0.587938
v -0.653281 0.382683 -0.653281
v -0.693519 0.195090 -0.693520
v -0.707106 0.000000 -0.707106
v -0.693519 -0.195090 -0.693520
v -0.653281 -0.382683 -0.653281
v -0.587937 -0.555570 -0.587938
v -0.500000 -0.707107 -0.500000
v -0.392847 -0.831470 -0.392847
v -0.270598 -0.923880 -0.270598
v -0.137950 -0.980785 -0.137950
v -0.108386 0.980785 -0.162212
v -0.212607 0.923880 -0.318190
v -0.308658 0.831470 -0.461939
v -0.392847 0.707107 -0.587938
v -0.461939 0.555570 -0.691341
v -0.513280 0.382683 -0.768177
v -0.544895 0.195090 -0.815493
v -0.555569 0.000000 -0.831469
v -0.544895 -0.195090 -0.815493
v -0.513280 -0.382683 -0.768177
v -0.461939 -0.555570 -0.691341
v -0.392847 -0.707107 -0.587938
v -0.308658 -0.831470 -0.461939
v -0.212607 -0.923880 -0.318190
v -0.108386 -0.980785 -0.162212
v -0.074658 0.980785 -0.180240
v -0.146446 0.923880 -0.353553
v -0.212607 0.831470 -0.513279
v -0.270598 0.707107 -0.653281
v -0.318189 0.555570 -0.768177
v -0.353553 0.382683 -0.853553
v -0.375330 0.195090 -0.906127
v -0.382683 0.000000 -0.923879
v -0.375330 -0.195090 -0.906127
v -0.353553 -0.382683 -0.853553
v -0.318189 -0.555570 -0.768177
v -0.270598 -0.707107 -0.653281
v -0.212607 -0.831470 -0.513279
v -0.146446 -0.923880 -0.353553
v -0.074658 -0.980785 -0.180240
v -0.038060 0.980785 -0.191342
v -0.074658 0.923880 -0.375330
v -0.108386 0.831470 -0.544895
v -0.137950 0.707107 -0.693520
v -0.162211 0.555570 -0.815493
v -0.180240 0.382683 -0.906127
v -0.191341 0.195090 -0.961939
v -0.195090 0.000000 -0.980784
v -0.191341 -0.195090 -0.961939
v -0.180240 -0.382683 -0.906127
v -0.162211 -0.555570 -0.815493
v -0.137950 -0.707107 -0.693520
v -0.108386 -0.831470 -0.544895
v -0.074658 -0.923880 -0.375330
v -0.038060 -0.980785 -0.191342
v 0.000000 0.980785 -0.195090
v 0.000000 0.923880 -0.382683
v 0.000000 0.707107 -0.707107
v 0.000000 0.382683 -0.923879
v 0.000000 -0.382683 -0.923879
v 0.000000 -0.707107 -0.707107
v 0.000000 -0.831470 -0.555570
v 0.000000 -0.923880 -0.382683
v 0.000000 -0.980785 -0.195090
vn 0.0464 0.8810 -0.4709
vn 0.0865 -0.4696 -0.8786
vn 0.0624 0.7715 -0.6332
vn 0.0759 -0.6326 -0.7708
vn 0.0759 0.6326 -0.7708
vn 0.0624 -0.7715 -0.6332
vn 0.0865 0.4696 -0.8786
vn 0.0464 -0.8810 -0.4709
vn 0.0938 0.2890 -0.9527
vn 0.0286 -0.9565 -0.2902
vn 0.0975 0.0975 -0.9904
vn 0.0097 0.9951 -0.0980
vn 0.0097 -0.9951 -0.0980
vn 0.0975 -0.0976 -0.9904
vn 0.0286 0.9565 -0.2902
vn 0.0938 -0.2890 -0.9527
vn 0.0846 0.9565 -0.2790
vn 0.2779 -0.2890 -0.9161
vn 0.1374 0.8810 -0.4528
vn 0.2563 -0.4696 -0.8448
vn 0.1847 0.7715 -0.6088
vn 0.2248 -0.6326 -0.7412
vn 0.2248 0.6326 -0.7412
vn 0.1847 -0.7715 -0.6088
vn 0.2563 0.4696 -0.8448
vn 0.1374 -0.8810 -0.4528
vn 0.2779 0.2890 -0.9161
vn 0.0846 -0.9565 -0.2790
vn 0.2889 0.0976 -0.9524
vn 0.0286 0.9951 -0.0942
vn 0.0286 -0.9951 -0.0942
vn 0.2889 -0.0976 -0.9524
vn 0.4162 0.4696 -0.7786
vn 0.2230 -0.8810 -0.4173
vn 0.4513 0.2890 -0.8443
vn 0.1374 -0.9565 -0.2571
vn 0.4691 0.0975 -0.8777
vn 0.0464 0.9951 -0.0869
vn 0.0464 -0.9951 -0.0869
vn 0.4691 -0.0975 -0.8777
vn 0.1374 0.9565 -0.2571
vn 0.4513 -0.2890 -0.8443
vn 0.2231 0.8810 -0.4173
vn 0.4162 -0.4696 -0.7786
vn 0.2999 0.7715 -0.5611
vn 0.3651 -0.6326 -0.6831
vn 0.3651 0.6326 -0.6831
vn 0.2999 -0.7715 -0.5611
vn 0.6073 -0.2890 -0.7400
vn 0.3002 0.8810 -0.3658
vn 0.5601 -0.4696 -0.6825
vn 0.4036 0.7715 -0.4918
vn 0.4913 -0.6326 -0.5987
vn 0.4913 0.6326 -0.5987
vn 0.4036 -0.7715 -0.4918
vn 0.5601 0.4696 -0.6825
vn 0.3002 -0.8810 -0.3658
vn 0.6073 0.2890 -0.7400
vn 0.1850 -0.9565 -0.2254
vn 0.6314 0.0975 -0.7693
vn 0.0625 0.9951 -0.0761
vn 0.0625 -0.9951 -0.0761
vn 0.6314 -0.0975 -0.7693
vn 0.1850 0.9565 -0.2254
vn 0.3658 -0.8810 -0.3002
vn 0.7400 0.2890 -0.6073
vn 0.2254 -0.9566 -0.1850
vn 0.7693 0.0975 -0.6314
vn 0.0761 0.9951 -0.0625
vn 0.0761 -0.9951 -0.0625
vn 0.7693 -0.0975 -0.6314
vn 0.2254 0.9565 -0.1850
vn 0.7400 -0.2890 -0.6073
vn 0.3658 0.8810 -0.3002
vn 0.6825 -0.4696 -0.5601
vn 0.4918 0.7715 -0.4036
vn 0.5987 -0.6326 -0.4913
vn 0.5987 0.6326 -0.4913
vn 0.4918 -0.7715 -0.4036
vn 0.6825 0.4696 -0.5601
vn 0.4173 0.8810 -0.2230
vn 0.7786 -0.4696 -0.4162
vn 0.5611 0.7715 -0.2999
vn 0.6831 -0.6326 -0.3651
vn 0.6831 0.6326 -0.3651
vn 0.5611 -0.7715 -0.2999
vn 0.7786 0.4696 -0.4162
vn 0.4173 -0.8810 -0.2230
vn 0.8443 0.2890 -0.4513
vn 0.2571 -0.9565 -0.1374
vn 0.8777 0.0975 -0.4691
vn 0.0869 0.9951 -0.0464
vn 0.0869 -0.9951 -0.0464
vn 0.8777 -0.0975 -0.4691
vn 0.2571 0.9565 -0.1374
vn 0.8443 -0.2890 -0.4513
vn 0.9161 0.2890 -0.2779
vn 0.2790 -0.9565 -0.0846
vn 0.9524 0.0975 -0.2889
vn 0.0942 0.9951 -0.0286
vn 0.0942 -0.9951 -0.0286
vn 0.9524 -0.0975 -0.2889
vn 0.2790 0.9565 -0.0846
vn 0.9161 -0.2890 -0.2779
vn 0.4528 0.8810 -0.1374
vn 0.8448 -0.4696 -0.2563
vn 0.6088 0.7715 -0.1847
vn 0.7412 -0.6326 -0.2248
vn 0.7412 0.6326 -0.2248
vn 0.6088 -0.7715 -0.1847
vn 0.8448 0.4696 -0.2563
vn 0.4528 -0.8810 -0.1374
vn 0.8786 -0.4696 -0.0865
vn 0.6332 0.7715 -0.0624
vn 0.7708 -0.6326 -0.0759
vn 0.7708 0.6326 -0.0759
vn 0.6332 -0.7715 -0.0624
vn 0.8786 0.4696 -0.0865
vn 0.4709 -0.8810 -0.0464
vn 0.9527 0.2890 -0.0938
vn 0.2902 -0.9565 -0.0286
vn 0.9904 0.0975 -0.0975
vn 0.0980 0.9951 -0.0097
vn 0.0980 -0.9951 -0.0097
vn 0.9904 -0.0975 -0.0975
vn 0.2902 0.9565 -0.0286
vn 0.9527 -0.2890 -0.0938
vn 0.4709 0.8810 -0.0464
vn 0.2902 -0.9565 0.0286
vn 0.9904 0.0975 0.0976
vn 0.0980 0.9951 0.0097
vn 0.0980 -0.9951 0.0097
vn 0.9904 -0.0975 0.0976
vn 0.2902 0.9565 0.0286
vn 0.9527 -0.2890 0.0938
vn 0.4709 0.8810 0.0464
vn 0.8786 -0.4696 0.0865
vn 0.6332 0.7715 0.0624
vn 0.7708 -0.6326 0.0759
vn 0.7708 0.6326 0.0759
vn 0.6332 -0.7715 0.0624
vn 0.8786 0.4696 0.0865
vn 0.4709 -0.8810 0.0464
vn 0.9527 0.2890 0.0938
vn 0.7412 -0.6326 0.2248
vn 0.7412 0.6326 0.2248
vn 0.6088 -0.7715 0.1847
vn 0.8448 0.4696 0.2563
vn 0.4528 -0.8810 0.1374
vn 0.9161 0.2890 0.2779
vn 0.2790 -0.9565 0.0846
vn 0.9524 0.0975 0.2889
vn 0.0942 0.9951 0.0286
vn 0.0942 -0.9951 0.0286
vn 0.9524 -0.0975 0.2889
vn 0.2790 0.9565 0.0846
vn 0.9161 -0.2890 0.2779
vn 0.4528 0.8810 0.1374
vn 0.8448 -0.4696 0.2563
vn 0.6088 0.7715 0.1847
vn 0.0869 0.9951 0.0464
vn 0.0869 -0.9951 0.0464
vn 0.8777 -0.0975 0.4691
vn 0.2571 0.9565 0.1374
vn 0.8443 -0.2890 0.4513
vn 0.4173 0.8810 0.2231
vn 0.7786 -0.4696 0.4162
vn 0.5611 0.7715 0.2999
vn 0.6831 -0.6326 0.3651
vn 0.6831 0.6326 0.3651
vn 0.5611 -0.7715 0.2999
vn 0.7786 0.4696 0.4162
vn 0.4173 -0.8810 0.2230
vn 0.8443 0.2890 0.4513
vn 0.2571 -0.9566 0.1374
vn 0.8777 0.0975 0.4691
vn 0.5987 0.6326 0.4913
vn 0.4918 -0.7715 0.4036
vn 0.6825 0.4696 0.5601
vn 0.3658 -0.8810 0.3002
vn 0.7400 0.2890 0.6073
vn 0.2254 -0.9565 0.1850
vn 0.7693 0.0975 0.6314
vn 0.0761 0.9951 0.0625
vn 0.0761 -0.9951 0.0625
vn 0.7693 -0.0975 0.6314
vn 0.2254 0.9565 0.1850
vn 0.7400 -0.2890 0.6073
vn 0.3658 0.8810 0.3002
vn 0.6825 -0.4696 0.5601
vn 0.4918 0.7715 0.4036
vn 0.5987 -0.6326 0.4913
vn 0.6314 -0.0975 0.7693
vn 0.1850 0.9565 0.2254
vn 0.6073 -0.2890 0.7400
vn 0.3002 0.8810 0.3658
vn 0.5601 -0.4696 0.6825
vn 0.4036 0.7715 0.4918
vn 0.4913 -0.6326 0.5987
vn 0.4913 0.6326 0.5987
vn 0.4036 -0.7715 0.4918
vn 0.5601 0.4696 0.6825
vn 0.3002 -0.8810 0.3658
vn 0.6073 0.2890 0.7400
vn 0.1850 -0.9565 0.2254
vn 0.6314 0.0975 0.7693
vn 0.0625 0.9951 0.0761
vn 0.0625 -0.9951 0.0761
vn 0.2999 -0.7715 0.5611
vn 0.4162 0.4696 0.7786
vn 0.2230 -0.8810 0.4173
vn 0.4513 0.2890 0.8443
vn 0.1374 -0.9565 0.2571
vn 0.4691 0.0975 0.8777
vn 0.0464 0.9951 0.0869
vn 0.0464 -0.9951 0.0869
vn 0.4691 -0.0975 0.8777
vn 0.1374 0.9565 0.2571
vn 0.4513 -0.2890 0.8443
vn 0.2230 0.8810 0.4173
vn 0.4162 -0.4696 0.7786
vn 0.2999 0.7715 0.5611
vn 0.3651 -0.6326 0.6831
vn 0.3651 0.6326 0.6831
vn 0.0846 0.9565 0.2790
vn 0.2779 -0.2890 0.9161
vn 0.1374 0.8810 0.4528
vn 0.2563 -0.4696 0.8448
vn 0.1847 0.7715 0.6088
vn 0.2248 -0.6326 0.7412
vn 0.2248 0.6326 0.7412
vn 0.1847 -0.7715 0.6088
vn 0.2563 0.4696 0.8448
vn 0.1374 -0.8810 0.4528
vn 0.2779 0.2890 0.9161
vn 0.0846 -0.9565 0.2790
vn 0.2889 0.0975 0.9524
vn 0.0286 0.9951 0.0942
vn 0.0286 -0.9951 0.0942
vn 0.2889 -0.0975 0.9524
vn 0.0865 0.4696 0.8786
vn 0.0464 -0.8810 0.4709
vn 0.0938 0.2890 0.9527
vn 0.0286 -0.9565 0.2902
vn 0.0975 0.0975 0.9904
vn 0.0097 0.9951 0.0980
vn 0.0097 -0.9951 0.0980
vn 0.0975 -0.0975 0.9904
vn 0.0286 0.9565 0.2902
vn 0.0938 -0.2890 0.9527
vn 0.0464 0.8810 0.4709
vn 0.0865 -0.4696 0.8786
vn 0.0624 0.7715 0.6332
vn 0.0759 -0.6326 0.7708
vn 0.0759 0.6326 0.7708
vn 0.0624 -0.7715 0.6332
vn -0.0938 -0.2890 0.9527
vn -0.0464 0.8810 0.4709
vn -0.0865 -0.4696 0.8786
vn -0.0624 0.7715 0.6332
vn -0.0759 -0.6326 0.7708
vn -0.0759 0.6326 0.7708
vn -0.0624 -0.7715 0.6332
vn -0.0865 0.4696 0.8786
vn -0.0464 -0.8810 0.4709
vn -0.0938 0.2890 0.9527
vn -0.0286 -0.9565 0.2902
vn -0.0976 0.0975 0.9904
vn -0.0097 0.9951 0.0980
vn -0.0097 -0.9951 0.0980
vn -0.0975 -0.0975 0.9904
vn -0.0286 0.9565 0.2902
vn -0.1374 -0.8810 0.4528
vn -0.2779 0.2890 0.9161
vn -0.0846 -0.9565 0.2790
vn -0.2889 0.0975 0.9524
vn -0.0286 0.9951 0.0942
vn -0.0286 -0.9951 0.0942
vn -0.2889 -0.0975 0.9524
vn -0.0846 0.9565 0.2790
vn -0.2779 -0.2890 0.9161
vn -0.1374 0.8810 0.4528
vn -0.2563 -0.4696 0.8448
vn -0.1847 0.7715 0.6088
vn -0.2248 -0.6326 0.7412
vn -0.2248 0.6326 0.7412
vn -0.1847 -0.7715 0.6088
vn -0.2563 0.4696 0.8448
vn -0.4162 -0.4696 0.7786
vn -0.2999 0.7715 0.5611
vn -0.3651 -0.6326 0.6831
vn -0.3651 0.6326 0.6831
vn -0.2999 -0.7715 0.5611
vn -0.4162 0.4696 0.7786
vn -0.2230 -0.8810 0.4173
vn -0.4513 0.2890 0.8443
vn -0.1374 -0.9565 0.2571
vn -0.4691 0.0975 0.8777
vn -0.0464 0.9951 0.0869
vn -0.0464 -0.9951 0.0869
vn -0.4691 -0.0975 0.8777
vn -0.1374 0.9565 0.2571
vn -0.4513 -0.2890 0.8443
vn -0.2230 0.8810 0.4173
vn -0.1850 -0.9565 0.2254
vn -0.6314 0.0975 0.7693
vn -0.0625 0.9951 0.0761
vn -0.0625 -0.9951 0.0761
vn -0.6314 -0.0975 0.7693
vn -0.1850 0.9565 0.2254
vn -0.6073 -0.2890 0.7400
vn -0.3002 0.8810 0.3658
vn -0.5601 -0.4696 0.6825
vn -0.4036 0.7715 0.4918
vn -0.4913 -0.6326 0.5987
vn -0.4913 0.6326 0.5987
vn -0.4036 -0.7715 0.4918
vn -0.5601 0.4696 0.6825
vn -0.3002 -0.8810 0.3658
vn -0.6073 0.2890 0.7400
vn -0.4918 0.7715 0.4036
vn -0.5987 -0.6326 0.4913
vn -0.5987 0.6326 0.4913
vn -0.4918 -0.7715 0.4036
vn -0.6825 0.4696 0.5601
vn -0.3658 -0.8810 0.3002
vn -0.7400 0.2890 0.6073
vn -0.2254 -0.9566 0.1850
vn -0.7693 0.0975 0.6314
vn -0.0761 0.9951 0.0625
vn -0.0761 -0.9951 0.0625
vn -0.7693 -0.0975 0.6314
vn -0.2254 0.9565 0.1850
vn -0.7400 -0.2890 0.6073
vn -0.3658 0.8810 0.3002
vn -0.6825 -0.4696 0.5601
vn -0.8777 0.0975 0.4691
vn -0.0869 0.9951 0.0464
vn -0.0869 -0.9951 0.0464
vn -0.8777 -0.0975 0.4691
vn -0.2571 0.9565 0.1374
vn -0.8443 -0.2890 0.4513
vn -0.4173 0.8810 0.2230
vn -0.7786 -0.4696 0.4162
vn -0.5611 0.7715 0.2999
vn -0.6831 -0.6326 0.3651
vn -0.6831 0.6326 0.3651
vn -0.5611 -0.7715 0.2999
vn -0.7786 0.4696 0.4162
vn -0.4173 -0.8810 0.2231
vn -0.8443 0.2890 0.4513
vn -0.2571 -0.9565 0.1374
vn -0.7412 -0.6326 0.2248
vn -0.7412 0.6326 0.2248
vn -0.6088 -0.7715 0.1847
vn -0.8448 0.4696 0.2563
vn -0.4528 -0.8810 0.1374
vn -0.9161 0.2890 0.2779
vn -0.2790 -0.9565 0.0846
vn -0.9524 0.0975 0.2889
vn -0.0942 0.9951 0.0286
vn -0.0942 -0.9951 0.0286
vn -0.9524 -0.0975 0.2889
vn -0.2790 0.9565 0.0846
vn -0.9161 -0.2890 0.2779
vn -0.4528 0.8810 0.1374
vn -0.8448 -0.4696 0.2563
vn -0.6088 0.7715 0.1847
vn -0.0980 0.9951 0.0097
vn -0.0980 -0.9951 0.0097
vn -0.9904 -0.0975 0.0976
vn -0.2902 0.9565 0.0286
vn -0.9527 -0.2890 0.0938
vn -0.4709 0.8810 0.0464
vn -0.8786 -0.4696 0.0865
vn -0.6332 0.7715 0.0624
vn -0.7708 -0.6326 0.0759
vn -0.7708 0.6326 0.0759
vn -0.6332 -0.7715 0.0624
vn -0.8786 0.4696 0.0865
vn -0.4709 -0.8810 0.0464
vn -0.9527 0.2890 0.0938
vn -0.2902 -0.9565 0.0286
vn -0.9904 0.0975 0.0975
vn -0.7708 0.6326 -0.0759
vn -0.6332 -0.7715 -0.0624
vn -0.8786 0.4696 -0.0865
vn -0.4709 -0.8810 -0.0464
vn -0.9527 0.2890 -0.0938
vn -0.2902 -0.9565 -0.0286
vn -0.9904 0.0975 -0.0975
vn -0.0980 0.9951 -0.0097
vn -0.0980 -0.9951 -0.0097
vn -0.9904 -0.0975 -0.0976
vn -0.2902 0.9565 -0.0286
vn -0.9527 -0.2890 -0.0938
vn -0.4709 0.8810 -0.0464
vn -0.8786 -0.4696 -0.0865
vn -0.6332 0.7715 -0.0624
vn -0.7708 -0.6326 -0.0759
vn -0.9524 -0.0975 -0.2889
vn -0.2790 0.9565 -0.0846
vn -0.9161 -0.2890 -0.2779
vn -0.4528 0.8810 -0.1374
vn -0.8448 -0.4696 -0.2563
vn -0.6088 0.7715 -0.1847
vn -0.7412 -0.6326 -0.2248
vn -0.7412 0.6326 -0.2248
vn -0.6088 -0.7715 -0.1847
vn -0.8448 0.4696 -0.2563
vn -0.4528 -0.8810 -0.1374
vn -0.9161 0.2890 -0.2779
vn -0.2790 -0.9565 -0.0846
vn -0.9524 0.0975 -0.2889
vn -0.0942 0.9951 -0.0286
vn -0.0942 -0.9951 -0.0286
vn -0.5611 -0.7715 -0.2999
vn -0.7786 0.4696 -0.4162
vn -0.4173 -0.8810 -0.2231
vn -0.8443 0.2890 -0.4513
vn -0.2571 -0.9565 -0.1374
vn -0.8777 0.0975 -0.4691
vn -0.0869 0.9951 -0.0464
vn -0.0869 -0.9951 -0.0464
vn -0.8777 -0.0975 -0.4691
vn -0.2571 0.9565 -0.1374
vn -0.8443 -0.2890 -0.4513
vn -0.4173 0.8810 -0.2231
vn -0.7786 -0.4696 -0.4162
vn -0.5611 0.7715 -0.2999
vn -0.6831 -0.6326 -0.3651
vn -0.6831 0.6326 -0.3651
vn -0.7400 -0.2890 -0.6073
vn -0.3658 0.8810 -0.3002
vn -0.6825 -0.4696 -0.5601
vn -0.4918 0.7715 -0.4036
vn -0.5987 -0.6326 -0.4913
vn -0.5987 0.6326 -0.4913
vn -0.4918 -0.7715 -0.4036
vn -0.6825 0.4696 -0.5601
vn -0.3658 -0.8810 -0.3002
vn -0.7400 0.2890 -0.6073
vn -0.2254 -0.9565 -0.1850
vn -0.7693 0.0975 -0.6314
vn -0.0761 0.9951 -0.0625
vn -0.0761 -0.9951 -0.0625
vn -0.7693 -0.0975 -0.6314
vn -0.2254 0.9565 -0.1850
vn -0.3002 -0.8810 -0.3658
vn -0.6073 0.2890 -0.7400
vn -0.1850 -0.9565 -0.2254
vn -0.6314 0.0975 -0.7693
vn -0.0625 0.9951 -0.0761
vn -0.0625 -0.9951 -0.0761
vn -0.6314 -0.0975 -0.7693
vn -0.1850 0.9565 -0.2254
vn -0.6073 -0.2890 -0.7400
vn -0.3002 0.8810 -0.3658
vn -0.5601 -0.4696 -0.6825
vn -0.4036 0.7715 -0.4918
vn -0.4913 -0.6326 -0.5987
vn -0.4913 0.6326 -0.5987
vn -0.4036 -0.7715 -0.4918
vn -0.5601 0.4696 -0.6825
vn -0.2230 0.8810 -0.4173
vn -0.4162 -0.4696 -0.7786
vn -0.2999 0.7715 -0.5611
vn -0.3651 -0.6326 -0.6831
vn -0.3651 0.6326 -0.6831
vn -0.2999 -0.7715 -0.5611
vn -0.4162 0.4696 -0.7786
vn -0.2230 -0.8810 -0.4173
vn -0.4513 0.2890 -0.8443
vn -0.1374 -0.9565 -0.2571
vn -0.4691 0.0975 -0.8777
vn -0.0464 0.9951 -0.0869
vn -0.0464 -0.9951 -0.0869
vn -0.4691 -0.0975 -0.8777
vn -0.1374 0.9565 -0.2571
vn -0.4513 -0.2890 -0.8443
vn -0.2779 0.2890 -0.9161
vn -0.0846 -0.9565 -0.2790
vn -0.2889 0.0975 -0.9524
vn -0.0286 0.9951 -0.0942
vn -0.0286 -0.9951 -0.0942
vn -0.2889 -0.0975 -0.9524
vn -0.0846 0.9565 -0.2790
vn -0.2779 -0.2890 -0.9161
vn -0.1374 0.8810 -0.4528
vn -0.2563 -0.4696 -0.8448
vn -0.1847 0.7715 -0.6088
vn -0.2248 -0.6326 -0.7412
vn -0.2248 0.6326 -0.7412
vn -0.1847 -0.7715 -0.6088
vn -0.2563 0.4696 -0.8448
vn -0.1374 -0.8810 -0.4528
vn -0.0865 -0.4696 -0.8786
vn -0.0624 0.7715 -0.6332
vn -0.0759 -0.6326 -0.7708
vn -0.0759 0.6326 -0.7708
vn -0.0624 -0.7715 -0.6332
vn -0.0865 0.4696 -0.8786
vn -0.0464 -0.8810 -0.4709
vn -0.0938 0.2890 -0.9527
vn -0.0286 -0.9565 -0.2902
vn -0.0976 0.0975 -0.9904
vn -0.0097 0.9951 -0.0980
vn -0.0097 -0.9951 -0.0980
vn -0.0976 -0.0975 -0.9904
vn -0.0286 0.9565 -0.2902
vn -0.0938 -0.2890 -0.9527
vn -0.0464 0.8810 -0.4709
vn 0.0975 0.0976 -0.9904
vn 0.0975 -0.0975 -0.9904
vn 0.2231 -0.8810 -0.4173
vn 0.2230 0.8810 -0.4173
vn 0.2254 -0.9565 -0.1850
vn 0.4173 0.8810 0.2230
vn 0.4173 -0.8810 0.2231
vn 0.2571 -0.9565 0.1374
vn -0.0975 0.0975 0.9904
vn -0.0976 -0.0975 0.9904
vn -0.2231 -0.8810 0.4173
vn -0.2231 0.8810 0.4173
vn -0.2254 -0.9565 0.1850
vn -0.2254 0.9566 0.1850
vn -0.4173 -0.8810 0.2230
vn -0.9904 -0.0975 0.0975
vn -0.9904 0.0975 0.0976
vn -0.9904 0.0975 -0.0976
vn -0.9904 -0.0975 -0.0975
vt 0.643299 0.366317
vt 0.673727 0.399272
vt 0.636667 0.384909
vt 0.455238 0.345869
vt 0.434149 0.373297
vt 0.429016 0.351505
vt 0.611407 0.355068
vt 0.605610 0.375895
vt 0.400848 0.359905
vt 0.407238 0.380037
vt 0.578158 0.370170
vt 0.582210 0.347963
vt 0.377316 0.390026
vt 0.370252 0.372185
vt 0.555523 0.343481
vt 0.552770 0.366813
vt 0.341815 0.405283
vt 0.334487 0.390622
vt 0.530034 0.341250
vt 0.528964 0.365152
vt 0.293783 0.429697
vt 0.288350 0.419313
vt 0.505759 0.364917
vt 0.505137 0.341118
vt 0.730951 0.412065
vt 0.786189 0.444342
vt 0.725735 0.423405
vt 0.238096 0.452221
vt 0.482623 0.366103
vt 0.480422 0.342499
vt 0.680813 0.383793
vt 0.459050 0.368837
vt 0.668011 0.414673
vt 0.461944 0.390427
vt 0.631383 0.402997
vt 0.438187 0.394024
vt 0.600955 0.395907
vt 0.412710 0.399543
vt 0.574816 0.391391
vt 0.383034 0.407497
vt 0.550791 0.388702
vt 0.347852 0.420037
vt 0.528200 0.387490
vt 0.298305 0.440502
vt 0.506270 0.387320
vt 0.780277 0.455616
vt 0.720519 0.434607
vt 0.240919 0.458167
vt 0.484374 0.388275
vt 0.549255 0.409575
vt 0.387877 0.424619
vt 0.352780 0.434825
vt 0.527650 0.408708
vt 0.301973 0.451649
vt 0.506731 0.408595
vt 0.776420 0.462689
vt 0.716130 0.445996
vt 0.243275 0.464787
vt 0.485788 0.409382
vt 0.663432 0.429922
vt 0.464298 0.411096
vt 0.626852 0.420666
vt 0.441536 0.413989
vt 0.597387 0.415150
vt 0.416699 0.418352
vt 0.572316 0.411611
vt 0.466172 0.431016
vt 0.623529 0.437892
vt 0.444135 0.433276
vt 0.594851 0.433780
vt 0.419886 0.436684
vt 0.570305 0.431146
vt 0.391672 0.441493
vt 0.548094 0.429622
vt 0.356728 0.449620
vt 0.527254 0.429001
vt 0.304839 0.463078
vt 0.507081 0.429068
vt 0.773212 0.470244
vt 0.712508 0.457540
vt 0.245103 0.471988
vt 0.486919 0.429674
vt 0.659391 0.444991
vt 0.359802 0.464403
vt 0.547281 0.449055
vt 0.527026 0.448685
vt 0.306951 0.474748
vt 0.507414 0.448834
vt 0.770496 0.478008
vt 0.709638 0.469189
vt 0.246360 0.479687
vt 0.487817 0.449323
vt 0.656238 0.459982
vt 0.467625 0.450349
vt 0.621090 0.454761
vt 0.446120 0.452061
vt 0.593010 0.451907
vt 0.422337 0.454637
vt 0.568854 0.450108
vt 0.394565 0.458172
vt 0.619291 0.471447
vt 0.468711 0.469256
vt 0.447574 0.470482
vt 0.591511 0.469747
vt 0.424120 0.472308
vt 0.568087 0.468589
vt 0.396647 0.474689
vt 0.546812 0.468024
vt 0.361964 0.479142
vt 0.526951 0.467893
vt 0.309444 0.486291
vt 0.507730 0.468112
vt 0.768124 0.485909
vt 0.707505 0.480862
vt 0.249316 0.493238
vt 0.488521 0.468504
vt 0.654440 0.474899
vt 0.546627 0.486686
vt 0.527015 0.486787
vt 0.311228 0.497806
vt 0.508032 0.487073
vt 0.766304 0.494049
vt 0.706063 0.492530
vt 0.251591 0.501150
vt 0.489056 0.487381
vt 0.653449 0.489666
vt 0.469470 0.487886
vt 0.618227 0.488004
vt 0.448548 0.488668
vt 0.590862 0.487337
vt 0.425285 0.489797
vt 0.567598 0.486850
vt 0.397986 0.491095
vt 0.363332 0.493800
vt 0.469927 0.506378
vt 0.449074 0.506740
vt 0.590763 0.504782
vt 0.425866 0.507199
vt 0.567576 0.504947
vt 0.398618 0.507447
vt 0.546726 0.505192
vt 0.363889 0.508398
vt 0.527218 0.505518
vt 0.312315 0.509266
vt 0.508327 0.505875
vt 0.765171 0.502308
vt 0.705290 0.504192
vt 0.253315 0.509081
vt 0.489435 0.506107
vt 0.652784 0.504351
vt 0.618012 0.504419
vt 0.311628 0.520751
vt 0.527567 0.524226
vt 0.508623 0.524662
vt 0.764533 0.510467
vt 0.705199 0.515814
vt 0.253378 0.511500
vt 0.489669 0.524825
vt 0.652900 0.519012
vt 0.470093 0.524870
vt 0.618481 0.520741
vt 0.449166 0.524819
vt 0.591225 0.522160
vt 0.425873 0.524615
vt 0.567997 0.522999
vt 0.398565 0.523826
vt 0.547118 0.523666
vt 0.363699 0.522990
vt 0.425301 0.542145
vt 0.592264 0.539577
vt 0.568869 0.541130
vt 0.397833 0.540309
vt 0.547814 0.542243
vt 0.362661 0.537642
vt 0.528073 0.543056
vt 0.310254 0.532301
vt 0.508927 0.543583
vt 0.764245 0.518500
vt 0.705801 0.527330
vt 0.252021 0.519519
vt 0.489763 0.543680
vt 0.654304 0.533583
vt 0.469969 0.543497
vt 0.619506 0.537087
vt 0.448820 0.543026
vt 0.764692 0.526419
vt 0.707098 0.538747
vt 0.250464 0.533263
vt 0.309303 0.543928
vt 0.489715 0.562823
vt 0.656045 0.548168
vt 0.469546 0.562401
vt 0.621433 0.553522
vt 0.448017 0.561485
vt 0.593946 0.557154
vt 0.424113 0.559886
vt 0.570213 0.559467
vt 0.396207 0.556916
vt 0.548838 0.561062
vt 0.361165 0.552393
vt 0.528753 0.562157
vt 0.509248 0.562790
vt 0.596340 0.574956
vt 0.572058 0.578122
vt 0.422280 0.577920
vt 0.393955 0.573703
vt 0.550233 0.580271
vt 0.358379 0.567191
vt 0.529634 0.581692
vt 0.306562 0.555249
vt 0.509596 0.582451
vt 0.765641 0.534026
vt 0.709129 0.550024
vt 0.250182 0.535607
vt 0.489519 0.582417
vt 0.658656 0.562770
vt 0.468800 0.581732
vt 0.624148 0.570057
vt 0.446722 0.580325
vt 0.489159 0.602645
vt 0.711923 0.561083
vt 0.662672 0.577249
vt 0.467693 0.601664
vt 0.627591 0.586757
vt 0.444875 0.599704
vt 0.599257 0.593100
vt 0.419720 0.596400
vt 0.574683 0.597280
vt 0.390838 0.590817
vt 0.552077 0.600054
vt 0.354636 0.582079
vt 0.530750 0.601841
vt 0.303056 0.566493
vt 0.509978 0.602749
vt 0.766946 0.541301
vt 0.247447 0.542983
vt 0.416314 0.615453
vt 0.386593 0.608328
vt 0.554395 0.620552
vt 0.350310 0.597157
vt 0.532140 0.622802
vt 0.298760 0.577604
vt 0.510408 0.623899
vt 0.768952 0.548196
vt 0.715510 0.571911
vt 0.244230 0.550135
vt 0.488615 0.623717
vt 0.667271 0.591791
vt 0.466172 0.622390
vt 0.632232 0.603760
vt 0.442393 0.619788
vt 0.603325 0.611748
vt 0.577844 0.617029
vt 0.673053 0.606303
vt 0.464158 0.644136
vt 0.638018 0.621038
vt 0.439160 0.640755
vt 0.608395 0.630948
vt 0.411936 0.635171
vt 0.581879 0.637589
vt 0.381238 0.626221
vt 0.557316 0.642021
vt 0.344736 0.612384
vt 0.533867 0.644828
vt 0.294535 0.588882
vt 0.510899 0.646159
vt 0.771391 0.554533
vt 0.719948 0.582430
vt 0.239111 0.561690
vt 0.487851 0.645883
vt 0.560983 0.664714
vt 0.374698 0.644489
vt 0.337523 0.627536
vt 0.536015 0.668219
vt 0.288547 0.599355
vt 0.511468 0.669843
vt 0.774276 0.560206
vt 0.725297 0.592554
vt 0.238108 0.563572
vt 0.486818 0.669450
vt 0.680142 0.620747
vt 0.461537 0.667177
vt 0.645175 0.638622
vt 0.435012 0.662826
vt 0.614703 0.650834
vt 0.406402 0.655691
vt 0.586956 0.659153
vt 0.458152 0.691858
vt 0.689104 0.634845
vt 0.653792 0.656454
vt 0.429720 0.686281
vt 0.622527 0.671528
vt 0.399424 0.677226
vt 0.593324 0.681959
vt 0.366520 0.663322
vt 0.565591 0.688951
vt 0.328877 0.642666
vt 0.538699 0.693347
vt 0.281573 0.609425
vt 0.512138 0.695347
vt 0.777369 0.565168
vt 0.731605 0.602143
vt 0.233689 0.568811
vt 0.485444 0.694804
vt 0.356396 0.682725
vt 0.318545 0.657670
vt 0.571410 0.715138
vt 0.542075 0.720694
vt 0.273566 0.618971
vt 0.512936 0.723184
vt 0.778845 0.566350
vt 0.739453 0.610634
vt 0.228873 0.573351
vt 0.483625 0.722439
vt 0.699291 0.648753
vt 0.453777 0.718609
vt 0.664601 0.674735
vt 0.422965 0.711446
vt 0.632297 0.693238
vt 0.390643 0.699948
vt 0.601335 0.706309
vt 0.448092 0.747981
vt 0.414304 0.738712
vt 0.644482 0.716039
vt 0.379568 0.724040
vt 0.611468 0.732532
vt 0.343906 0.702666
vt 0.578819 0.743782
vt 0.306251 0.672377
vt 0.546367 0.750883
vt 0.264484 0.627831
vt 0.513900 0.754025
vt 0.783658 0.569276
vt 0.748325 0.618430
vt 0.223824 0.577070
vt 0.481210 0.753001
vt 0.711490 0.662195
vt 0.677793 0.693298
vt 0.291690 0.686517
vt 0.254298 0.635803
vt 0.551895 0.784755
vt 0.515081 0.788779
vt 0.788409 0.571334
vt 0.758231 0.625316
vt 0.218722 0.579858
vt 0.477971 0.787361
vt 0.726227 0.674707
vt 0.440625 0.780697
vt 0.693666 0.711781
vt 0.403099 0.768563
vt 0.659750 0.740002
vt 0.365524 0.749676
vt 0.624411 0.761028
vt 0.328498 0.723035
vt 0.588365 0.775547
vt 0.679141 0.765252
vt 0.347567 0.776990
vt 0.641160 0.792307
vt 0.309461 0.743580
vt 0.600857 0.811324
vt 0.274530 0.699689
vt 0.559133 0.823464
vt 0.243010 0.642637
vt 0.516548 0.828705
vt 0.794993 0.573662
vt 0.768960 0.631471
vt 0.213792 0.581631
vt 0.473567 0.826720
vt 0.743207 0.686173
vt 0.430672 0.817723
vt 0.713525 0.730260
vt 0.388420 0.801589
vt 0.568783 0.868644
vt 0.518402 0.875558
vt 0.798017 0.574028
vt 0.780666 0.636020
vt 0.209313 0.582365
vt 0.230666 0.648033
vt 0.467481 0.872780
vt 0.763112 0.695703
vt 0.417141 0.860411
vt 0.737398 0.747623
vt 0.368882 0.838500
vt 0.703892 0.791567
vt 0.324352 0.806016
vt 0.663163 0.826901
vt 0.285904 0.763802
vt 0.617524 0.852332
vt 0.254440 0.711311
vt 0.293900 0.836587
vt 0.736121 0.818718
vt 0.692604 0.865376
vt 0.256772 0.782751
vt 0.640360 0.900408
vt 0.231134 0.720556
vt 0.581857 0.922692
vt 0.217392 0.651641
vt 0.520783 0.931737
vt 0.800308 0.573505
vt 0.793178 0.638644
vt 0.205623 0.582123
vt 0.458969 0.928044
vt 0.785568 0.702568
vt 0.398239 0.910797
vt 0.767181 0.763271
vt 0.342390 0.880053
vt 0.801426 0.572511
vt 0.806175 0.638986
vt 0.203093 0.581107
vt 0.203425 0.653075
vt 0.447192 0.996322
vt 0.810675 0.705479
vt 0.370519 0.972755
vt 0.803397 0.775068
vt 0.305908 0.926386
vt 0.778900 0.845949
vt 0.253007 0.868298
vt 0.732497 0.907539
vt 0.221063 0.798597
vt 0.673152 0.959022
vt 0.204461 0.726295
vt 0.599607 0.989264
vt 0.523869 0.999922
vt 0.714092 0.082324
vt 0.723944 0.173193
vt 0.676231 0.129768
vt 0.211345 0.232603
vt 0.279902 0.190372
vt 0.247838 0.245517
vt 0.620361 0.098249
vt 0.647965 0.039344
vt 0.228384 0.306473
vt 0.203093 0.303297
vt 0.574670 0.010177
vt 0.559634 0.079730
vt 0.220327 0.371274
vt 0.207309 0.370919
vt 0.492661 0.000078
vt 0.495993 0.075180
vt 0.815019 0.356956
vt 0.815391 0.428654
vt 0.801105 0.358392
vt 0.212005 0.437506
vt 0.433154 0.085158
vt 0.412098 0.017637
vt 0.813908 0.284098
vt 0.787404 0.289615
vt 0.374789 0.108621
vt 0.342433 0.053186
vt 0.798717 0.210658
vt 0.761798 0.227360
vt 0.281714 0.101241
vt 0.322727 0.144221
vt 0.763421 0.142672
vt 0.239165 0.164296
vt 0.447181 0.139989
vt 0.787873 0.362030
vt 0.763918 0.298865
vt 0.398040 0.156414
vt 0.732716 0.246297
vt 0.352337 0.182586
vt 0.693730 0.203608
vt 0.311542 0.217430
vt 0.649318 0.171272
vt 0.276953 0.261444
vt 0.600907 0.148452
vt 0.251320 0.313592
vt 0.550148 0.135882
vt 0.233010 0.373983
vt 0.498400 0.133230
vt 0.813048 0.427715
vt 0.212851 0.437329
vt 0.336251 0.244053
vt 0.301176 0.279305
vt 0.587010 0.191425
vt 0.271012 0.323410
vt 0.543706 0.182512
vt 0.244782 0.378257
vt 0.500231 0.180807
vt 0.809577 0.427548
vt 0.775565 0.367491
vt 0.217089 0.436175
vt 0.457129 0.185711
vt 0.743589 0.310475
vt 0.414980 0.197685
vt 0.709304 0.266432
vt 0.374439 0.217239
vt 0.670490 0.232744
vt 0.629534 0.208201
vt 0.427614 0.233808
vt 0.726485 0.323829
vt 0.690024 0.287118
vt 0.391268 0.248694
vt 0.652409 0.260297
vt 0.355657 0.269609
vt 0.614669 0.241365
vt 0.320931 0.297928
vt 0.576840 0.228790
vt 0.288109 0.335160
vt 0.539137 0.222275
vt 0.255530 0.384471
vt 0.501665 0.221135
vt 0.805230 0.428208
vt 0.764340 0.374406
vt 0.218460 0.436196
vt 0.464466 0.224823
vt 0.302741 0.348135
vt 0.569240 0.261818
vt 0.535804 0.256955
vt 0.265193 0.391975
vt 0.502812 0.256183
vt 0.800441 0.429938
vt 0.754245 0.382473
vt 0.222080 0.437515
vt 0.470027 0.259023
vt 0.712034 0.338195
vt 0.437235 0.265911
vt 0.674415 0.307624
vt 0.404287 0.277436
vt 0.638249 0.286174
vt 0.371019 0.293934
vt 0.603315 0.271407
vt 0.337089 0.316775
vt 0.699936 0.353150
vt 0.661657 0.327743
vt 0.444677 0.294856
vt 0.414503 0.303914
vt 0.627111 0.310477
vt 0.383266 0.317041
vt 0.594521 0.298885
vt 0.350340 0.335533
vt 0.563477 0.291464
vt 0.315194 0.361895
vt 0.533328 0.287786
vt 0.273762 0.400515
vt 0.503744 0.287270
vt 0.795453 0.432721
vt 0.745273 0.391430
vt 0.225912 0.439956
vt 0.474327 0.289494
vt 0.559087 0.318422
vt 0.531471 0.315648
vt 0.325741 0.376133
vt 0.281265 0.409884
vt 0.504509 0.315332
vt 0.794093 0.434079
vt 0.737921 0.401720
vt 0.229715 0.443479
vt 0.477701 0.317086
vt 0.689243 0.368315
vt 0.450480 0.321276
vt 0.651456 0.347220
vt 0.422648 0.328543
vt 0.618404 0.333313
vt 0.393067 0.339008
vt 0.587592 0.324293
vt 0.361239 0.354037
vt 0.787210 0.442454
vt 0.236709 0.450741
s 0
usemtl マテリアル
f 1/1/1 8/2/1 9/3/1
f 478/4/2 17/5/2 6/6/2
f 476/7/3 9/3/3 10/8/3
f 479/9/4 17/5/4 18/10/4
f 476/7/5 11/11/5 2/12/5
f 479/9/6 19/13/6 480/14/6
f 477/15/7 11/11/7 12/16/7
f 480/14/8 20/17/8 481/18/8
f 3/19/9 12/16/9 13/20/9
f 481/18/10 21/21/10 482/22/10
f 3/19/11 14/23/11 4/24/11
f 474/25/12 82/26/12 7/27/12
f 308/28/13 482/22/13 21/21/13
f 4/24/14 15/29/14 5/30/14
f 475/31/15 7/27/15 8/2/15
f 5/30/16 16/32/16 478/4/16
f 7/27/17 23/33/17 8/2/17
f 15/29/18 31/34/18 16/32/18
f 8/2/19 24/35/19 9/3/19
f 17/5/20 31/34/20 32/36/20
f 9/3/21 25/37/21 10/8/21
f 18/10/22 32/36/22 33/38/22
f 10/8/23 26/39/23 11/11/23
f 19/13/24 33/38/24 34/40/24
f 11/11/25 27/41/25 12/16/25
f 20/17/26 34/40/26 35/42/26
f 13/20/27 27/41/27 28/43/27
f 20/17/28 36/44/28 21/21/28
f 13/20/29 29/45/29 14/23/29
f 7/27/30 82/46/30 22/47/30
f 308/48/31 21/21/31 36/44/31
f 14/23/32 30/49/32 15/29/32
f 26/39/33 42/50/33 27/41/33
f 35/42/34 49/51/34 50/52/34
f 28/43/35 42/50/35 43/53/35
f 36/44/36 50/52/36 51/54/36
f 29/45/37 43/53/37 44/55/37
f 22/47/38 82/56/38 37/57/38
f 308/58/39 36/44/39 51/54/39
f 29/45/40 45/59/40 30/49/40
f 22/47/41 38/60/41 23/33/41
f 30/49/42 46/61/42 31/34/42
f 23/33/43 39/62/43 24/35/43
f 32/36/44 46/61/44 47/63/44
f 24/35/45 40/64/45 25/37/45
f 33/38/46 47/63/46 48/65/46
f 25/37/47 41/66/47 26/39/47
f 34/40/48 48/65/48 49/51/48
f 45/59/49 61/67/49 46/61/49
f 38/60/50 54/68/50 39/62/50
f 47/63/51 61/67/51 62/69/51
f 39/62/52 55/70/52 40/64/52
f 47/63/53 63/71/53 48/65/53
f 41/66/54 55/70/54 56/72/54
f 49/51/55 63/71/55 64/73/55
f 41/66/56 57/74/56 42/50/56
f 50/52/57 64/73/57 65/75/57
f 43/53/58 57/74/58 58/76/58
f 51/54/59 65/75/59 66/77/59
f 44/55/60 58/76/60 59/78/60
f 37/57/61 82/79/61 52/80/61
f 308/81/62 51/54/62 66/77/62
f 44/55/63 60/82/63 45/59/63
f 37/57/64 53/83/64 38/60/64
f 64/73/65 80/84/65 65/75/65
f 58/76/66 72/85/66 73/86/66
f 65/75/67 81/87/67 66/77/67
f 59/78/68 73/86/68 74/88/68
f 52/80/69 82/89/69 67/90/69
f 308/91/70 66/77/70 81/87/70
f 59/78/71 75/92/71 60/82/71
f 53/83/72 67/90/72 68/93/72
f 60/82/73 76/94/73 61/67/73
f 54/68/74 68/93/74 69/95/74
f 62/69/75 76/94/75 77/96/75
f 54/68/76 70/97/76 55/70/76
f 62/69/77 78/98/77 63/71/77
f 56/72/78 70/97/78 71/99/78
f 64/73/79 78/98/79 79/100/79
f 56/72/80 72/85/80 57/74/80
f 68/93/81 85/101/81 69/95/81
f 77/96/82 92/102/82 93/103/82
f 69/95/83 86/104/83 70/97/83
f 77/96/84 94/105/84 78/98/84
f 71/99/85 86/104/85 87/106/85
f 79/100/86 94/105/86 95/107/86
f 71/99/87 88/108/87 72/85/87
f 80/84/88 95/107/88 96/109/88
f 73/86/89 88/108/89 89/110/89
f 81/87/90 96/109/90 97/111/90
f 74/88/91 89/110/91 90/112/91
f 67/90/92 82/113/92 83/114/92
f 308/115/93 81/87/93 97/111/93
f 74/88/94 91/116/94 75/92/94
f 67/90/95 84/117/95 68/93/95
f 75/92/96 92/102/96 76/94/96
f 89/110/97 103/118/97 104/119/97
f 96/109/98 112/120/98 97/111/98
f 90/112/99 104/119/99 105/121/99
f 83/114/100 82/122/100 98/123/100
f 308/124/101 97/111/101 112/120/101
f 90/112/102 106/125/102 91/116/102
f 83/114/103 99/126/103 84/117/103
f 91/116/104 107/127/104 92/102/104
f 85/101/105 99/126/105 100/128/105
f 93/103/106 107/127/106 108/129/106
f 85/101/107 101/130/107 86/104/107
f 93/103/108 109/131/108 94/105/108
f 87/106/109 101/130/109 102/132/109
f 95/107/110 109/131/110 110/133/110
f 87/106/111 103/118/111 88/108/111
f 95/107/112 111/134/112 96/109/112
f 108/129/113 122/135/113 123/136/113
f 100/128/114 116/137/114 101/130/114
f 108/129/115 124/138/115 109/131/115
f 102/132/116 116/137/116 117/139/116
f 110/133/117 124/138/117 125/140/117
f 102/132/118 118/141/118 103/118/118
f 111/134/119 125/140/119 126/142/119
f 104/119/120 118/141/120 119/143/120
f 111/134/121 127/144/121 112/120/121
f 105/121/122 119/143/122 120/145/122
f 98/123/123 82/146/123 113/147/123
f 308/148/124 112/120/124 127/144/124
f 105/121/125 121/149/125 106/125/125
f 98/123/126 114/150/126 99/126/126
f 106/125/127 122/135/127 107/127/127
f 99/126/128 115/151/128 100/128/128
f 126/142/129 142/152/129 127/144/129
f 120/145/130 134/153/130 135/154/130
f 113/147/131 82/155/131 128/156/131
f 308/157/132 127/144/132 142/152/132
f 120/145/133 136/158/133 121/149/133
f 114/150/134 128/156/134 129/159/134
f 121/149/135 137/160/135 122/135/135
f 115/151/136 129/159/136 130/161/136
f 123/136/137 137/160/137 138/162/137
f 115/151/138 131/163/138 116/137/138
f 123/136/139 139/164/139 124/138/139
f 117/139/140 131/163/140 132/165/140
f 125/140/141 139/164/141 140/166/141
f 117/139/142 133/167/142 118/141/142
f 125/140/143 141/168/143 126/142/143
f 119/143/144 133/167/144 134/153/144
f 138/162/145 154/169/145 139/164/145
f 132/165/146 146/170/146 147/171/146
f 140/166/147 154/169/147 155/172/147
f 132/165/148 148/173/148 133/167/148
f 141/168/149 155/172/149 156/174/149
f 134/153/150 148/173/150 149/175/150
f 141/168/151 157/176/151 142/152/151
f 135/154/152 149/175/152 150/177/152
f 128/156/153 82/178/153 143/179/153
f 308/180/154 142/152/154 157/176/154
f 135/154/155 151/181/155 136/158/155
f 128/156/156 144/182/156 129/159/156
f 136/158/157 152/183/157 137/160/157
f 129/159/158 145/184/158 130/161/158
f 138/162/159 152/183/159 153/185/159
f 130/161/160 146/170/160 131/163/160
f 143/179/161 82/186/161 158/187/161
f 308/188/162 157/176/162 172/189/162
f 150/177/163 166/190/163 151/181/163
f 143/179/164 159/191/164 144/182/164
f 151/181/165 167/192/165 152/183/165
f 144/182/166 160/193/166 145/184/166
f 153/185/167 167/192/167 168/194/167
f 145/184/168 161/195/168 146/170/168
f 153/185/169 169/196/169 154/169/169
f 147/171/170 161/195/170 162/197/170
f 155/172/171 169/196/171 170/198/171
f 147/171/172 163/199/172 148/173/172
f 156/174/173 170/198/173 171/200/173
f 149/175/174 163/199/174 164/201/174
f 157/176/175 171/200/175 172/189/175
f 150/177/176 164/201/176 165/202/176
f 162/197/177 176/203/177 177/204/177
f 170/198/178 184/205/178 185/206/178
f 162/197/179 178/207/179 163/199/179
f 171/200/180 185/206/180 186/208/180
f 164/201/181 178/207/181 179/209/181
f 172/189/182 186/208/182 187/210/182
f 165/202/183 179/209/183 180/211/183
f 158/187/184 82/212/184 173/213/184
f 308/214/185 172/189/185 187/210/185
f 165/202/186 181/215/186 166/190/186
f 158/187/187 174/216/187 159/191/187
f 166/190/188 182/217/188 167/192/188
f 159/191/189 175/218/189 160/193/189
f 168/194/190 182/217/190 183/219/190
f 160/193/191 176/203/191 161/195/191
f 168/194/192 184/205/192 169/196/192
f 180/211/193 196/220/193 181/215/193
f 174/216/194 188/221/194 189/222/194
f 181/215/195 197/223/195 182/217/195
f 175/218/196 189/222/196 190/224/196
f 183/219/197 197/223/197 198/225/197
f 175/218/198 191/226/198 176/203/198
f 183/219/199 199/227/199 184/205/199
f 177/204/200 191/226/200 192/228/200
f 185/206/201 199/227/201 200/229/201
f 177/204/202 193/230/202 178/207/202
f 185/206/203 201/231/203 186/208/203
f 179/209/204 193/230/204 194/232/204
f 186/208/205 202/233/205 187/210/205
f 180/211/206 194/232/206 195/234/206
f 173/213/207 82/235/207 188/221/207
f 308/236/208 187/210/208 202/233/208
f 200/229/209 214/237/209 215/238/209
f 192/228/210 208/239/210 193/230/210
f 201/231/211 215/238/211 216/240/211
f 194/232/212 208/239/212 209/241/212
f 202/233/213 216/240/213 217/242/213
f 195/234/214 209/241/214 210/243/214
f 188/221/215 82/244/215 203/245/215
f 308/246/216 202/233/216 217/242/216
f 195/234/217 211/247/217 196/220/217
f 188/221/218 204/248/218 189/222/218
f 196/220/219 212/249/219 197/223/219
f 189/222/220 205/250/220 190/224/220
f 198/225/221 212/249/221 213/251/221
f 190/224/222 206/252/222 191/226/222
f 198/225/223 214/237/223 199/227/223
f 192/228/224 206/252/224 207/253/224
f 203/245/225 219/254/225 204/248/225
f 211/247/226 227/255/226 212/249/226
f 204/248/227 220/256/227 205/250/227
f 213/251/228 227/255/228 228/257/228
f 205/250/229 221/258/229 206/252/229
f 213/251/230 229/259/230 214/237/230
f 207/253/231 221/258/231 222/260/231
f 215/238/232 229/259/232 230/261/232
f 207/253/233 223/262/233 208/239/233
f 216/240/234 230/261/234 231/263/234
f 209/241/235 223/262/235 224/264/235
f 217/242/236 231/263/236 232/265/236
f 210/243/237 224/264/237 225/266/237
f 203/245/238 82/267/238 218/268/238
f 308/269/239 217/242/239 232/265/239
f 210/243/240 226/270/240 211/247/240
f 222/260/241 238/271/241 223/262/241
f 231/263/242 245/272/242 246/273/242
f 224/264/243 238/271/243 239/274/243
f 231/263/244 247/275/244 232/265/244
f 225/266/245 239/274/245 240/276/245
f 218/268/246 82/277/246 233/278/246
f 308/279/247 232/265/247 247/275/247
f 225/266/248 241/280/248 226/270/248
f 219/254/249 233/278/249 234/281/249
f 226/270/250 242/282/250 227/255/250
f 219/254/251 235/283/251 220/256/251
f 228/257/252 242/282/252 243/284/252
f 220/256/253 236/285/253 221/258/253
f 228/257/254 244/286/254 229/259/254
f 222/260/255 236/285/255 237/287/255
f 230/261/256 244/286/256 245/272/256
f 241/280/257 257/288/257 242/282/257
f 235/283/258 249/289/258 250/290/258
f 243/284/259 257/288/259 258/291/259
f 235/283/260 251/292/260 236/285/260
f 243/284/261 259/293/261 244/286/261
f 237/287/262 251/292/262 252/294/262
f 245/272/263 259/293/263 260/295/263
f 237/287/264 253/296/264 238/271/264
f 245/272/265 261/297/265 246/273/265
f 239/274/266 253/296/266 254/298/266
f 246/273/267 262/299/267 247/275/267
f 240/276/268 254/298/268 255/300/268
f 233/278/269 82/301/269 248/302/269
f 308/303/270 247/275/270 262/299/270
f 240/276/271 256/304/271 241/280/271
f 234/281/272 248/302/272 249/289/272
f 261/297/273 275/305/273 276/306/273
f 254/298/274 268/307/274 269/308/274
f 261/297/275 277/309/275 262/299/275
f 255/300/276 269/308/276 270/310/276
f 248/302/277 82/311/277 263/312/277
f 308/313/278 262/299/278 277/309/278
f 255/300/279 271/314/279 256/304/279
f 249/289/280 263/312/280 264/315/280
f 256/304/281 272/316/281 257/288/281
f 249/289/282 265/317/282 250/290/282
f 258/291/283 272/316/283 273/318/283
f 250/290/284 266/319/284 251/292/284
f 258/291/285 274/320/285 259/293/285
f 252/294/286 266/319/286 267/321/286
f 260/295/287 274/320/287 275/305/287
f 252/294/288 268/307/288 253/296/288
f 273/318/289 287/322/289 288/323/289
f 265/317/290 281/324/290 266/319/290
f 273/318/291 289/325/291 274/320/291
f 267/321/292 281/324/292 282/326/292
f 275/305/293 289/325/293 290/327/293
f 267/321/294 283/328/294 268/307/294
f 275/305/295 291/329/295 276/306/295
f 269/308/296 283/328/296 284/330/296
f 276/306/297 292/331/297 277/309/297
f 270/310/298 284/330/298 285/332/298
f 263/312/299 82/333/299 278/334/299
f 308/335/300 277/309/300 292/331/300
f 270/310/301 286/336/301 271/314/301
f 263/312/302 279/337/302 264/315/302
f 271/314/303 287/322/303 272/316/303
f 264/315/304 280/338/304 265/317/304
f 292/331/305 306/339/305 307/340/305
f 285/332/306 299/341/306 300/342/306
f 278/334/307 82/343/307 293/344/307
f 308/345/308 292/331/308 307/340/308
f 285/332/309 301/346/309 286/336/309
f 278/334/310 294/347/310 279/337/310
f 286/336/311 302/348/311 287/322/311
f 280/338/312 294/347/312 295/349/312
f 288/323/313 302/348/313 303/350/313
f 280/338/314 296/351/314 281/324/314
f 288/323/315 304/352/315 289/325/315
f 282/326/316 296/351/316 297/353/316
f 290/327/317 304/352/317 305/354/317
f 282/326/318 298/355/318 283/328/318
f 290/327/319 306/339/319 291/329/319
f 284/330/320 298/355/320 299/341/320
f 295/349/321 312/356/321 296/351/321
f 303/350/322 320/357/322 304/352/322
f 297/353/323 312/356/323 313/358/323
f 305/354/324 320/357/324 321/359/324
f 297/353/325 314/360/325 298/355/325
f 305/354/326 322/361/326 306/339/326
f 299/341/327 314/360/327 315/362/327
f 306/339/328 323/363/328 307/340/328
f 300/342/329 315/362/329 316/364/329
f 293/344/330 82/365/330 309/366/330
f 308/367/331 307/340/331 323/363/331
f 300/342/332 317/368/332 301/346/332
f 294/347/333 309/366/333 310/369/333
f 301/346/334 318/370/334 302/348/334
f 295/349/335 310/369/335 311/371/335
f 303/350/336 318/370/336 319/372/336
f 316/364/337 330/373/337 331/374/337
f 309/366/338 82/375/338 324/376/338
f 308/377/339 323/363/339 338/378/339
f 316/364/340 332/379/340 317/368/340
f 309/366/341 325/380/341 310/369/341
f 317/368/342 333/381/342 318/370/342
f 310/369/343 326/382/343 311/371/343
f 319/372/344 333/381/344 334/383/344
f 311/371/345 327/384/345 312/356/345
f 319/372/346 335/385/346 320/357/346
f 313/358/347 327/384/347 328/386/347
f 321/359/348 335/385/348 336/387/348
f 313/358/349 329/388/349 314/360/349
f 321/359/350 337/389/350 322/361/350
f 315/362/351 329/388/351 330/373/351
f 323/363/352 337/389/352 338/378/352
f 334/383/353 350/390/353 335/385/353
f 328/386/354 342/391/354 343/392/354
f 336/387/355 350/390/355 351/393/355
f 328/386/356 344/394/356 329/388/356
f 336/387/357 352/395/357 337/389/357
f 330/373/358 344/394/358 345/396/358
f 338/378/359 352/395/359 353/397/359
f 331/374/360 345/396/360 346/398/360
f 324/376/361 82/399/361 339/400/361
f 308/401/362 338/378/362 353/397/362
f 331/374/363 347/402/363 332/379/363
f 324/376/364 340/403/364 325/380/364
f 332/379/365 348/404/365 333/381/365
f 326/382/366 340/403/366 341/405/366
f 334/383/367 348/404/367 349/406/367
f 326/382/368 342/391/368 327/384/368
f 339/400/369 82/407/369 354/408/369
f 308/409/370 353/397/370 368/410/370
f 346/398/371 362/411/371 347/402/371
f 339/400/372 355/412/372 340/403/372
f 347/402/373 363/413/373 348/404/373
f 341/405/374 355/412/374 356/414/374
f 349/406/375 363/413/375 364/415/375
f 341/405/376 357/416/376 342/391/376
f 349/406/377 365/417/377 350/390/377
f 343/392/378 357/416/378 358/418/378
f 351/393/379 365/417/379 366/419/379
f 343/392/380 359/420/380 344/394/380
f 351/393/381 367/421/381 352/395/381
f 345/396/382 359/420/382 360/422/382
f 353/397/383 367/421/383 368/410/383
f 346/398/384 360/422/384 361/423/384
f 358/424/385 372/425/385 373/426/385
f 366/427/386 380/428/386 381/429/386
f 358/424/387 374/430/387 359/431/387
f 366/427/388 382/432/388 367/433/388
f 360/434/389 374/430/389 375/435/389
f 367/433/390 383/436/390 368/437/390
f 361/438/391 375/435/391 376/439/391
f 354/440/392 82/441/392 369/442/392
f 308/443/393 368/437/393 383/436/393
f 361/438/394 377/444/394 362/445/394
f 355/446/395 369/442/395 370/447/395
f 362/445/396 378/448/396 363/449/396
f 356/450/397 370/447/397 371/451/397
f 364/452/398 378/448/398 379/453/398
f 356/450/399 372/425/399 357/454/399
f 364/452/400 380/428/400 365/455/400
f 376/439/401 392/456/401 377/444/401
f 370/447/402 384/457/402 385/458/402
f 377/444/403 393/459/403 378/448/403
f 371/451/404 385/458/404 386/460/404
f 379/453/405 393/459/405 394/461/405
f 371/451/406 387/462/406 372/425/406
f 379/453/407 395/463/407 380/428/407
f 373/426/408 387/462/408 388/464/408
f 381/429/409 395/463/409 396/465/409
f 373/426/410 389/466/410 374/430/410
f 381/429/411 397/467/411 382/432/411
f 375/435/412 389/466/412 390/468/412
f 382/432/413 398/469/413 383/436/413
f 376/439/414 390/468/414 391/470/414
f 369/442/415 82/471/415 384/457/415
f 308/472/416 383/436/416 398/469/416
f 396/465/417 410/473/417 411/474/417
f 388/464/418 404/475/418 389/466/418
f 396/465/419 412/476/419 397/467/419
f 390/468/420 404/475/420 405/477/420
f 398/469/421 412/476/421 413/478/421
f 391/470/422 405/477/422 406/479/422
f 384/457/423 82/480/423 399/481/423
f 308/482/424 398/469/424 413/478/424
f 391/470/425 407/483/425 392/456/425
f 384/457/426 400/484/426 385/458/426
f 392/456/427 408/485/427 393/459/427
f 386/460/428 400/484/428 401/486/428
f 394/461/429 408/485/429 409/487/429
f 386/460/430 402/488/430 387/462/430
f 394/461/431 410/473/431 395/463/431
f 388/464/432 402/488/432 403/489/432
f 407/483/433 423/490/433 408/485/433
f 401/486/434 415/491/434 416/492/434
f 409/487/435 423/490/435 424/493/435
f 401/486/436 417/494/436 402/488/436
f 409/487/437 425/495/437 410/473/437
f 403/489/438 417/494/438 418/496/438
f 411/474/439 425/495/439 426/497/439
f 403/489/440 419/498/440 404/475/440
f 411/474/441 427/499/441 412/476/441
f 405/477/442 419/498/442 420/500/442
f 412/476/443 428/501/443 413/478/443
f 406/479/444 420/500/444 421/502/444
f 399/481/445 82/503/445 414/504/445
f 308/505/446 413/478/446 428/501/446
f 406/479/447 422/506/447 407/483/447
f 399/481/448 415/491/448 400/484/448
f 426/497/449 442/507/449 427/499/449
f 420/500/450 434/508/450 435/509/450
f 428/501/451 442/507/451 443/510/451
f 421/502/452 435/509/452 436/511/452
f 414/504/453 82/512/453 429/513/453
f 308/514/454 428/501/454 443/510/454
f 421/502/455 437/515/455 422/506/455
f 414/504/456 430/516/456 415/491/456
f 422/506/457 438/517/457 423/490/457
f 416/492/458 430/516/458 431/518/458
f 424/493/459 438/517/459 439/519/459
f 416/492/460 432/520/460 417/494/460
f 424/493/461 440/521/461 425/495/461
f 418/496/462 432/520/462 433/522/462
f 426/497/463 440/521/463 441/523/463
f 418/496/464 434/508/464 419/498/464
f 431/518/465 445/524/465 446/525/465
f 439/519/466 453/526/466 454/527/466
f 431/518/467 447/528/467 432/520/467
f 439/519/468 455/529/468 440/521/468
f 433/522/469 447/528/469 448/530/469
f 441/523/470 455/529/470 456/531/470
f 433/522/471 449/532/471 434/508/471
f 441/523/472 457/533/472 442/507/472
f 435/509/473 449/532/473 450/534/473
f 442/507/474 458/535/474 443/510/474
f 436/511/475 450/534/475 451/536/475
f 429/513/476 82/537/476 444/538/476
f 308/539/477 443/510/477 458/535/477
f 436/511/478 452/540/478 437/515/478
f 430/516/479 444/538/479 445/524/479
f 437/515/480 453/526/480 438/517/480
f 450/534/481 464/541/481 465/542/481
f 458/535/482 472/543/482 473/544/482
f 451/536/483 465/542/483 466/545/483
f 444/538/484 82/546/484 459/547/484
f 308/548/485 458/535/485 473/544/485
f 451/536/486 467/549/486 452/540/486
f 444/538/487 460/550/487 445/524/487
f 452/540/488 468/551/488 453/526/488
f 446/525/489 460/550/489 461/552/489
f 454/527/490 468/551/490 469/553/490
f 446/525/491 462/554/491 447/528/491
f 454/527/492 470/555/492 455/529/492
f 448/530/493 462/554/493 463/556/493
f 456/531/494 470/555/494 471/557/494
f 448/530/495 464/541/495 449/532/495
f 456/531/496 472/543/496 457/533/496
f 468/551/497 6/6/497 469/553/497
f 462/554/498 1/1/498 476/7/498
f 469/553/499 479/9/499 470/555/499
f 463/556/500 476/7/500 2/12/500
f 471/557/501 479/9/501 480/14/501
f 464/541/502 2/12/502 477/15/502
f 471/557/503 481/18/503 472/543/503
f 465/542/504 477/15/504 3/19/504
f 472/543/505 482/22/505 473/544/505
f 466/545/506 3/19/506 4/24/506
f 459/547/507 82/558/507 474/25/507
f 308/559/508 473/544/508 482/22/508
f 466/545/509 5/30/509 467/549/509
f 459/547/510 475/31/510 460/550/510
f 467/549/511 478/4/511 468/551/511
f 461/552/512 475/31/512 1/1/512
f 1/1/1 475/31/1 8/2/1
f 478/4/2 16/32/2 17/5/2
f 476/7/3 1/1/3 9/3/3
f 479/9/4 6/6/4 17/5/4
f 476/7/5 10/8/5 11/11/5
f 479/9/6 18/10/6 19/13/6
f 477/15/7 2/12/7 11/11/7
f 480/14/8 19/13/8 20/17/8
f 3/19/9 477/15/9 12/16/9
f 481/18/10 20/17/10 21/21/10
f 3/19/513 13/20/513 14/23/513
f 4/24/514 14/23/514 15/29/514
f 475/31/15 474/25/15 7/27/15
f 5/30/16 15/29/16 16/32/16
f 7/27/17 22/47/17 23/33/17
f 15/29/18 30/49/18 31/34/18
f 8/2/19 23/33/19 24/35/19
f 17/5/20 16/32/20 31/34/20
f 9/3/21 24/35/21 25/37/21
f 18/10/22 17/5/22 32/36/22
f 10/8/23 25/37/23 26/39/23
f 19/13/24 18/10/24 33/38/24
f 11/11/25 26/39/25 27/41/25
f 20/17/26 19/13/26 34/40/26
f 13/20/27 12/16/27 27/41/27
f 20/17/28 35/42/28 36/44/28
f 13/20/29 28/43/29 29/45/29
f 14/23/32 29/45/32 30/49/32
f 26/39/33 41/66/33 42/50/33
f 35/42/515 34/40/515 49/51/515
f 28/43/35 27/41/35 42/50/35
f 36/44/36 35/42/36 50/52/36
f 29/45/37 28/43/37 43/53/37
f 29/45/40 44/55/40 45/59/40
f 22/47/41 37/57/41 38/60/41
f 30/49/42 45/59/42 46/61/42
f 23/33/516 38/60/516 39/62/516
f 32/36/44 31/34/44 46/61/44
f 24/35/45 39/62/45 40/64/45
f 33/38/46 32/36/46 47/63/46
f 25/37/47 40/64/47 41/66/47
f 34/40/48 33/38/48 48/65/48
f 45/59/49 60/82/49 61/67/49
f 38/60/50 53/83/50 54/68/50
f 47/63/51 46/61/51 61/67/51
f 39/62/52 54/68/52 55/70/52
f 47/63/53 62/69/53 63/71/53
f 41/66/54 40/64/54 55/70/54
f 49/51/55 48/65/55 63/71/55
f 41/66/56 56/72/56 57/74/56
f 50/52/57 49/51/57 64/73/57
f 43/53/58 42/50/58 57/74/58
f 51/54/59 50/52/59 65/75/59
f 44/55/60 43/53/60 58/76/60
f 44/55/63 59/78/63 60/82/63
f 37/57/64 52/80/64 53/83/64
f 64/73/65 79/100/65 80/84/65
f 58/76/66 57/74/66 72/85/66
f 65/75/517 80/84/517 81/87/517
f 59/78/68 58/76/68 73/86/68
f 59/78/71 74/88/71 75/92/71
f 53/83/72 52/80/72 67/90/72
f 60/82/73 75/92/73 76/94/73
f 54/68/74 53/83/74 68/93/74
f 62/69/75 61/67/75 76/94/75
f 54/68/76 69/95/76 70/97/76
f 62/69/77 77/96/77 78/98/77
f 56/72/78 55/70/78 70/97/78
f 64/73/79 63/71/79 78/98/79
f 56/72/80 71/99/80 72/85/80
f 68/93/81 84/117/81 85/101/81
f 77/96/82 76/94/82 92/102/82
f 69/95/83 85/101/83 86/104/83
f 77/96/84 93/103/84 94/105/84
f 71/99/85 70/97/85 86/104/85
f 79/100/86 78/98/86 94/105/86
f 71/99/87 87/106/87 88/108/87
f 80/84/88 79/100/88 95/107/88
f 73/86/89 72/85/89 88/108/89
f 81/87/90 80/84/90 96/109/90
f 74/88/91 73/86/91 89/110/91
f 74/88/94 90/112/94 91/116/94
f 67/90/95 83/114/95 84/117/95
f 75/92/96 91/116/96 92/102/96
f 89/110/97 88/108/97 103/118/97
f 96/109/98 111/134/98 112/120/98
f 90/112/99 89/110/99 104/119/99
f 90/112/102 105/121/102 106/125/102
f 83/114/103 98/123/103 99/126/103
f 91/116/104 106/125/104 107/127/104
f 85/101/105 84/117/105 99/126/105
f 93/103/106 92/102/106 107/127/106
f 85/101/107 100/128/107 101/130/107
f 93/103/108 108/129/108 109/131/108
f 87/106/109 86/104/109 101/130/109
f 95/107/110 94/105/110 109/131/110
f 87/106/111 102/132/111 103/118/111
f 95/107/112 110/133/112 111/134/112
f 108/129/113 107/127/113 122/135/113
f 100/128/114 115/151/114 116/137/114
f 108/129/115 123/136/115 124/138/115
f 102/132/116 101/130/116 116/137/116
f 110/133/117 109/131/117 124/138/117
f 102/132/118 117/139/118 118/141/118
f 111/134/119 110/133/119 125/140/119
f 104/119/120 103/118/120 118/141/120
f 111/134/121 126/142/121 127/144/121
f 105/121/122 104/119/122 119/143/122
f 105/121/125 120/145/125 121/149/125
f 98/123/126 113/147/126 114/150/126
f 106/125/127 121/149/127 122/135/127
f 99/126/128 114/150/128 115/151/128
f 126/142/129 141/168/129 142/152/129
f 120/145/130 119/143/130 134/153/130
f 120/145/133 135/154/133 136/158/133
f 114/150/134 113/147/134 128/156/134
f 121/149/135 136/158/135 137/160/135
f 115/151/136 114/150/136 129/159/136
f 123/136/137 122/135/137 137/160/137
f 115/151/138 130/161/138 131/163/138
f 123/136/139 138/162/139 139/164/139
f 117/139/140 116/137/140 131/163/140
f 125/140/141 124/138/141 139/164/141
f 117/139/142 132/165/142 133/167/142
f 125/140/143 140/166/143 141/168/143
f 119/143/144 118/141/144 133/167/144
f 138/162/145 153/185/145 154/169/145
f 132/165/146 131/163/146 146/170/146
f 140/166/147 139/164/147 154/169/147
f 132/165/148 147/171/148 148/173/148
f 141/168/149 140/166/149 155/172/149
f 134/153/150 133/167/150 148/173/150
f 141/168/151 156/174/151 157/176/151
f 135/154/152 134/153/152 149/175/152
f 135/154/155 150/177/155 151/181/155
f 128/156/156 143/179/156 144/182/156
f 136/158/157 151/181/157 152/183/157
f 129/159/158 144/182/158 145/184/158
f 138/162/159 137/160/159 152/183/159
f 130/161/160 145/184/160 146/170/160
f 150/177/163 165/202/163 166/190/163
f 143/179/164 158/187/164 159/191/164
f 151/181/165 166/190/165 167/192/165
f 144/182/518 159/191/518 160/193/518
f 153/185/167 152/183/167 167/192/167
f 145/184/168 160/193/168 161/195/168
f 153/185/169 168/194/169 169/196/169
f 147/171/170 146/170/170 161/195/170
f 155/172/171 154/169/171 169/196/171
f 147/171/172 162/197/172 163/199/172
f 156/174/519 155/172/519 170/198/519
f 149/175/174 148/173/174 163/199/174
f 157/176/520 156/174/520 171/200/520
f 150/177/176 149/175/176 164/201/176
f 162/197/177 161/195/177 176/203/177
f 170/198/178 169/196/178 184/205/178
f 162/197/179 177/204/179 178/207/179
f 171/200/180 170/198/180 185/206/180
f 164/201/181 163/199/181 178/207/181
f 172/189/182 171/200/182 186/208/182
f 165/202/183 164/201/183 179/209/183
f 165/202/186 180/211/186 181/215/186
f 158/187/187 173/213/187 174/216/187
f 166/190/188 181/215/188 182/217/188
f 159/191/189 174/216/189 175/218/189
f 168/194/190 167/192/190 182/217/190
f 160/193/191 175/218/191 176/203/191
f 168/194/192 183/219/192 184/205/192
f 180/211/193 195/234/193 196/220/193
f 174/216/194 173/213/194 188/221/194
f 181/215/195 196/220/195 197/223/195
f 175/218/196 174/216/196 189/222/196
f 183/219/197 182/217/197 197/223/197
f 175/218/198 190/224/198 191/226/198
f 183/219/199 198/225/199 199/227/199
f 177/204/200 176/203/200 191/226/200
f 185/206/201 184/205/201 199/227/201
f 177/204/202 192/228/202 193/230/202
f 185/206/203 200/229/203 201/231/203
f 179/209/204 178/207/204 193/230/204
f 186/208/205 201/231/205 202/233/205
f 180/211/206 179/209/206 194/232/206
f 200/229/209 199/227/209 214/237/209
f 192/228/210 207/253/210 208/239/210
f 201/231/211 200/229/211 215/238/211
f 194/232/212 193/230/212 208/239/212
f 202/233/213 201/231/213 216/240/213
f 195/234/214 194/232/214 209/241/214
f 195/234/217 210/243/217 211/247/217
f 188/221/218 203/245/218 204/248/218
f 196/220/219 211/247/219 212/249/219
f 189/222/220 204/248/220 205/250/220
f 198/225/221 197/223/221 212/249/221
f 190/224/222 205/250/222 206/252/222
f 198/225/223 213/251/223 214/237/223
f 192/228/224 191/226/224 206/252/224
f 203/245/225 218/268/225 219/254/225
f 211/247/226 226/270/226 227/255/226
f 204/248/227 219/254/227 220/256/227
f 213/251/228 212/249/228 227/255/228
f 205/250/229 220/256/229 221/258/229
f 213/251/230 228/257/230 229/259/230
f 207/253/231 206/252/231 221/258/231
f 215/238/232 214/237/232 229/259/232
f 207/253/233 222/260/233 223/262/233
f 216/240/234 215/238/234 230/261/234
f 209/241/235 208/239/235 223/262/235
f 217/242/236 216/240/236 231/263/236
f 210/243/237 209/241/237 224/264/237
f 210/243/240 225/266/240 226/270/240
f 222/260/241 237/287/241 238/271/241
f 231/263/242 230/261/242 245/272/242
f 224/264/243 223/262/243 238/271/243
f 231/263/244 246/273/244 247/275/244
f 225/266/245 224/264/245 239/274/245
f 225/266/248 240/276/248 241/280/248
f 219/254/249 218/268/249 233/278/249
f 226/270/250 241/280/250 242/282/250
f 219/254/251 234/281/251 235/283/251
f 228/257/252 227/255/252 242/282/252
f 220/256/253 235/283/253 236/285/253
f 228/257/254 243/284/254 244/286/254
f 222/260/255 221/258/255 236/285/255
f 230/261/256 229/259/256 244/286/256
f 241/280/257 256/304/257 257/288/257
f 235/283/258 234/281/258 249/289/258
f 243/284/259 242/282/259 257/288/259
f 235/283/260 250/290/260 251/292/260
f 243/284/261 258/291/261 259/293/261
f 237/287/262 236/285/262 251/292/262
f 245/272/263 244/286/263 259/293/263
f 237/287/264 252/294/264 253/296/264
f 245/272/265 260/295/265 261/297/265
f 239/274/266 238/271/266 253/296/266
f 246/273/267 261/297/267 262/299/267
f 240/276/521 239/274/521 254/298/521
f 240/276/522 255/300/522 256/304/522
f 234/281/272 233/278/272 248/302/272
f 261/297/273 260/295/273 275/305/273
f 254/298/274 253/296/274 268/307/274
f 261/297/275 276/306/275 277/309/275
f 255/300/276 254/298/276 269/308/276
f 255/300/279 270/310/279 271/314/279
f 249/289/280 248/302/280 263/312/280
f 256/304/281 271/314/281 272/316/281
f 249/289/282 264/315/282 265/317/282
f 258/291/283 257/288/283 272/316/283
f 250/290/284 265/317/284 266/319/284
f 258/291/285 273/318/285 274/320/285
f 252/294/286 251/292/286 266/319/286
f 260/295/287 259/293/287 274/320/287
f 252/294/288 267/321/288 268/307/288
f 273/318/289 272/316/289 287/322/289
f 265/317/290 280/338/290 281/324/290
f 273/318/291 288/323/291 289/325/291
f 267/321/292 266/319/292 281/324/292
f 275/305/293 274/320/293 289/325/293
f 267/321/294 282/326/294 283/328/294
f 275/305/523 290/327/523 291/329/523
f 269/308/296 268/307/296 283/328/296
f 276/306/297 291/329/297 292/331/297
f 270/310/298 269/308/298 284/330/298
f 270/310/301 285/332/301 286/336/301
f 263/312/302 278/334/302 279/337/302
f 271/314/303 286/336/303 287/322/303
f 264/315/524 279/337/524 280/338/524
f 292/331/305 291/329/305 306/339/305
f 285/332/306 284/330/306 299/341/306
f 285/332/309 300/342/309 301/346/309
f 278/334/310 293/344/310 294/347/310
f 286/336/311 301/346/311 302/348/311
f 280/338/312 279/337/312 294/347/312
f 288/323/313 287/322/313 302/348/313
f 280/338/314 295/349/314 296/351/314
f 288/323/315 303/350/315 304/352/315
f 282/326/316 281/324/316 296/351/316
f 290/327/317 289/325/317 304/352/317
f 282/326/318 297/353/318 298/355/318
f 290/327/319 305/354/319 306/339/319
f 284/330/320 283/328/320 298/355/320
f 295/349/321 311/371/321 312/356/321
f 303/350/322 319/372/322 320/357/322
f 297/353/323 296/351/323 312/356/323
f 305/354/324 304/352/324 320/357/324
f 297/353/325 313/358/325 314/360/325
f 305/354/326 321/359/326 322/361/326
f 299/341/327 298/355/327 314/360/327
f 306/339/525 322/361/525 323/363/525
f 300/342/329 299/341/329 315/362/329
f 300/342/332 316/364/332 317/368/332
f 294/347/526 293/344/526 309/366/526
f 301/346/334 317/368/334 318/370/334
f 295/349/335 294/347/335 310/369/335
f 303/350/336 302/348/336 318/370/336
f 316/364/337 315/362/337 330/373/337
f 316/364/340 331/374/340 332/379/340
f 309/366/341 324/376/341 325/380/341
f 317/368/342 332/379/342 333/381/342
f 310/369/343 325/380/343 326/382/343
f 319/372/344 318/370/344 333/381/344
f 311/371/345 326/382/345 327/384/345
f 319/372/346 334/383/346 335/385/346
f 313/358/347 312/356/347 327/384/347
f 321/359/348 320/357/348 335/385/348
f 313/358/349 328/386/349 329/388/349
f 321/359/527 336/387/527 337/389/527
f 315/362/351 314/360/351 329/388/351
f 323/363/352 322/361/352 337/389/352
f 334/383/353 349/406/353 350/390/353
f 328/386/354 327/384/354 342/391/354
f 336/387/355 335/385/355 350/390/355
f 328/386/356 343/392/356 344/394/356
f 336/387/357 351/393/357 352/395/357
f 330/373/358 329/388/358 344/394/358
f 338/378/359 337/389/359 352/395/359
f 331/374/360 330/373/360 345/396/360
f 331/374/363 346/398/363 347/402/363
f 324/376/364 339/400/364 340/403/364
f 332/379/365 347/402/365 348/404/365
f 326/382/366 325/380/366 340/403/366
f 334/383/367 333/381/367 348/404/367
f 326/382/368 341/405/368 342/391/368
f 346/398/528 361/423/528 362/411/528
f 339/400/372 354/408/372 355/412/372
f 347/402/373 362/411/373 363/413/373
f 341/405/374 340/403/374 355/412/374
f 349/406/375 348/404/375 363/413/375
f 341/405/376 356/414/376 357/416/376
f 349/406/377 364/415/377 365/417/377
f 343/392/378 342/391/378 357/416/378
f 351/393/379 350/390/379 365/417/379
f 343/392/380 358/418/380 359/420/380
f 351/393/381 366/419/381 367/421/381
f 345/396/382 344/394/382 359/420/382
f 353/397/383 352/395/383 367/421/383
f 346/398/529 345/396/529 360/422/529
f 358/424/385 357/454/385 372/425/385
f 366/427/386 365/455/386 380/428/386
f 358/424/387 373/426/387 374/430/387
f 366/427/388 381/429/388 382/432/388
f 360/434/389 359/431/389 374/430/389
f 367/433/390 382/432/390 383/436/390
f 361/438/530 360/434/530 375/435/530
f 361/438/531 376/439/531 377/444/531
f 355/446/395 354/440/395 369/442/395
f 362/445/396 377/444/396 378/448/396
f 356/450/397 355/446/397 370/447/397
f 364/452/398 363/449/398 378/448/398
f 356/450/399 371/451/399 372/425/399
f 364/452/400 379/453/400 380/428/400
f 376/439/401 391/470/401 392/456/401
f 370/447/402 369/442/402 384/457/402
f 377/444/403 392/456/403 393/459/403
f 371/451/404 370/447/404 385/458/404
f 379/453/405 378/448/405 393/459/405
f 371/451/406 386/460/406 387/462/406
f 379/453/407 394/461/407 395/463/407
f 373/426/408 372/425/408 387/462/408
f 381/429/409 380/428/409 395/463/409
f 373/426/410 388/464/410 389/466/410
f 381/429/411 396/465/411 397/467/411
f 375/435/412 374/430/412 389/466/412
f 382/432/413 397/467/413 398/469/413
f 376/439/414 375/435/414 390/468/414
f 396/465/417 395/463/417 410/473/417
f 388/464/418 403/489/418 404/475/418
f 396/465/419 411/474/419 412/476/419
f 390/468/420 389/466/420 404/475/420
f 398/469/421 397/467/421 412/476/421
f 391/470/422 390/468/422 405/477/422
f 391/470/425 406/479/425 407/483/425
f 384/457/426 399/481/426 400/484/426
f 392/456/427 407/483/427 408/485/427
f 386/460/428 385/458/428 400/484/428
f 394/461/429 393/459/429 408/485/429
f 386/460/430 401/486/430 402/488/430
f 394/461/431 409/487/431 410/473/431
f 388/464/432 387/462/432 402/488/432
f 407/483/433 422/506/433 423/490/433
f 401/486/434 400/484/434 415/491/434
f 409/487/435 408/485/435 423/490/435
f 401/486/436 416/492/436 417/494/436
f 409/487/437 424/493/437 425/495/437
f 403/489/438 402/488/438 417/494/438
f 411/474/439 410/473/439 425/495/439
f 403/489/440 418/496/440 419/498/440
f 411/474/441 426/497/441 427/499/441
f 405/477/442 404/475/442 419/498/442
f 412/476/443 427/499/443 428/501/443
f 406/479/444 405/477/444 420/500/444
f 406/479/447 421/502/447 422/506/447
f 399/481/448 414/504/448 415/491/448
f 426/497/449 441/523/449 442/507/449
f 420/500/450 419/498/450 434/508/450
f 428/501/451 427/499/451 442/507/451
f 421/502/452 420/500/452 435/509/452
f 421/502/455 436/511/455 437/515/455
f 414/504/456 429/513/456 430/516/456
f 422/506/457 437/515/457 438/517/457
f 416/492/458 415/491/458 430/516/458
f 424/493/459 423/490/459 438/517/459
f 416/492/460 431/518/460 432/520/460
f 424/493/461 439/519/461 440/521/461
f 418/496/462 417/494/462 432/520/462
f 426/497/463 425/495/463 440/521/463
f 418/496/464 433/522/464 434/508/464
f 431/518/465 430/516/465 445/524/465
f 439/519/466 438/517/466 453/526/466
f 431/518/467 446/525/467 447/528/467
f 439/519/468 454/527/468 455/529/468
f 433/522/469 432/520/469 447/528/469
f 441/523/470 440/521/470 455/529/470
f 433/522/471 448/530/471 449/532/471
f 441/523/472 456/531/472 457/533/472
f 435/509/473 434/508/473 449/532/473
f 442/507/474 457/533/474 458/535/474
f 436/511/475 435/509/475 450/534/475
f 436/511/478 451/536/478 452/540/478
f 430/516/479 429/513/479 444/538/479
f 437/515/480 452/540/480 453/526/480
f 450/534/481 449/532/481 464/541/481
f 458/535/482 457/533/482 472/543/482
f 451/536/483 450/534/483 465/542/483
f 451/536/486 466/545/486 467/549/486
f 444/538/487 459/547/487 460/550/487
f 452/540/488 467/549/488 468/551/488
f 446/525/489 445/524/489 460/550/489
f 454/527/490 453/526/490 468/551/490
f 446/525/491 461/552/491 462/554/491
f 454/527/492 469/553/492 470/555/492
f 448/530/493 447/528/493 462/554/493
f 456/531/494 455/529/494 470/555/494
f 448/530/495 463/556/495 464/541/495
f 456/531/496 471/557/496 472/543/496
f 468/551/497 478/4/497 6/6/497
f 462/554/498 461/552/498 1/1/498
f 469/553/499 6/6/499 479/9/499
f 463/556/500 462/554/500 476/7/500
f 471/557/501 470/555/501 479/9/501
f 464/541/502 463/556/502 2/12/502
f 471/557/503 480/14/503 481/18/503
f 465/542/504 464/541/504 477/15/504
f 472/543/505 481/18/505 482/22/505
f 466/545/506 465/542/506 3/19/506
f 466/545/509 4/24/509 5/30/509
f 459/547/510 474/25/510 475/31/510
f 467/549/511 5/30/511 478/4/511
f 461/552/512 460/550/512 475/31/512
